<?xml version="1.0" standalone="no"?>
<!DOCTYPE svg PUBLIC "-//W3C//DTD SVG 20010904//EN"
 "http://www.w3.org/TR/2001/REC-SVG-20010904/DTD/svg10.dtd">
<svg version="1.0" xmlns="http://www.w3.org/2000/svg"
 width="1024.000000pt" height="1024.000000pt" viewBox="0 0 1024.000000 1024.000000"
 preserveAspectRatio="xMidYMid meet">

<g transform="translate(0.000000,1024.000000) scale(0.100000,-0.100000)"
fill="#000000" stroke="none">
<path d="M8402 10050 c-84 -12 -154 -35 -228 -76 -55 -30 -65 -33 -94 -23 -17
6 -53 9 -80 7 -71 -7 -122 -44 -155 -113 -25 -51 -27 -63 -22 -131 6 -63 4
-74 -9 -74 -26 0 -108 -92 -138 -155 -42 -89 -40 -162 7 -284 41 -103 57 -213
38 -249 -10 -18 -9 -22 3 -22 20 0 43 45 57 111 11 49 12 51 26 33 8 -10 34
-59 59 -108 l44 -88 0 66 c0 80 9 83 69 22 68 -70 70 -144 4 -217 -36 -40 -37
-42 -18 -56 11 -8 37 -24 59 -35 33 -17 210 -186 299 -286 16 -18 38 -32 49
-32 21 0 98 40 130 68 14 12 20 12 33 2 21 -17 19 -33 -6 -48 -11 -7 -29 -33
-39 -57 -24 -55 -69 -86 -224 -151 -134 -56 -205 -91 -229 -113 -48 -41 -159
-231 -199 -338 -11 -32 -33 -76 -48 -98 -15 -22 -51 -86 -79 -143 l-52 -103
-29 21 c-83 59 -252 113 -512 161 l-117 22 -104 191 c-58 105 -118 209 -134
231 -43 60 -63 63 -200 32 -358 -81 -468 -109 -485 -124 -30 -27 -21 -67 39
-170 31 -54 73 -127 94 -163 l37 -65 -24 -24 c-32 -31 -30 -44 11 -134 19 -41
32 -82 29 -90 -8 -21 21 -114 49 -157 12 -19 29 -48 37 -63 25 -50 79 -105
125 -127 42 -20 45 -24 45 -61 0 -22 -5 -70 -11 -107 -7 -46 -8 -75 -1 -93 10
-25 79 -75 212 -154 57 -33 234 -152 485 -323 91 -62 181 -120 200 -128 48
-20 89 -18 138 7 51 27 187 164 293 298 43 55 80 98 82 96 6 -6 -41 -266 -78
-430 -74 -331 -159 -766 -200 -1024 -25 -159 -24 -161 75 -216 36 -20 68 -42
72 -48 8 -13 31 -202 32 -260 l1 -37 -587 2 -588 3 -1 107 c-1 74 -5 112 -15
124 -7 9 -13 28 -14 42 0 19 -6 28 -20 30 -28 5 -36 15 -44 53 -5 24 -13 35
-31 39 -27 6 -37 32 -39 95 -1 33 -6 43 -29 55 l-27 16 -11 389 c-11 350 -14
398 -34 465 -50 175 -148 273 -300 301 -102 18 -216 23 -252 9 -18 -6 -60 -15
-92 -20 -39 -6 -73 -19 -100 -38 -23 -16 -57 -37 -76 -47 -19 -9 -53 -34 -75
-55 -38 -36 -44 -38 -120 -42 -59 -4 -94 -12 -136 -31 -68 -33 -126 -35 -162
-7 -42 33 -93 50 -149 50 -29 0 -77 9 -106 20 -157 60 -330 -14 -405 -172
-107 -229 10 -510 226 -537 48 -6 52 -9 50 -31 -7 -67 -17 -94 -50 -131 -34
-37 -37 -45 -38 -108 -1 -66 -3 -70 -50 -125 -44 -50 -53 -56 -88 -56 -44 0
-77 -15 -77 -34 0 -10 -29 -15 -113 -20 -62 -4 -120 -4 -130 -1 -14 6 -17 20
-17 72 0 35 -4 73 -10 83 -16 30 -67 40 -232 47 -119 5 -158 9 -162 20 -8 20
-34 188 -42 272 -5 57 -12 80 -29 96 -20 21 -105 53 -237 90 l-58 16 0 84 0
85 39 25 c102 64 204 217 230 343 16 76 14 208 -4 276 -20 78 -73 176 -138
256 -28 36 -96 128 -150 205 -54 77 -159 223 -233 325 -392 536 -392 536 -401
623 -5 53 -5 54 30 76 81 50 140 150 159 274 l13 78 59 41 c33 22 144 107 249
189 104 82 197 149 208 149 38 0 95 31 118 66 31 45 59 61 76 42 7 -7 20 -44
29 -83 23 -91 90 -219 133 -253 34 -27 119 -138 182 -239 42 -68 82 -100 137
-114 l44 -11 0 -77 c0 -99 20 -141 75 -160 54 -18 88 -3 123 54 15 24 32 43
37 41 6 -1 12 -20 16 -42 3 -21 10 -49 17 -60 14 -27 77 -58 103 -51 14 4 23
-3 33 -21 22 -41 116 -155 143 -173 14 -9 43 -20 64 -23 21 -3 39 -11 39 -16
0 -5 20 -28 44 -51 l44 -41 -38 -38 c-29 -29 -40 -50 -45 -85 -14 -91 33 -179
100 -187 l30 -3 2 -101 c1 -60 6 -112 14 -125 7 -14 15 -89 19 -188 7 -151 9
-166 29 -182 12 -10 26 -19 31 -21 6 -2 14 -32 18 -68 7 -61 9 -65 32 -65 24
0 25 3 28 73 2 52 7 72 16 72 8 0 19 6 25 13 11 14 23 262 23 460 0 95 1 97
25 103 16 4 28 2 34 -7 14 -22 10 -83 -6 -105 -22 -29 -18 -48 16 -73 17 -13
37 -37 45 -54 15 -32 15 -32 10 21 l-5 52 32 -1 c29 0 30 -1 10 -9 -21 -9 -22
-13 -19 -127 3 -94 2 -104 -4 -48 -7 63 -7 60 -5 -37 1 -88 5 -111 20 -128 10
-11 26 -20 36 -20 20 0 39 -47 39 -96 0 -47 9 -64 35 -64 29 0 35 16 35 93 0
58 2 63 30 79 l30 17 0 143 c0 124 3 148 20 181 26 48 25 69 -4 104 -25 29
-42 100 -29 119 5 6 31 23 59 37 94 48 130 114 122 226 -6 85 -41 154 -107
213 l-51 46 38 48 c88 113 117 195 110 320 -4 71 -10 94 -42 159 -41 83 -116
166 -202 225 -62 43 -187 98 -242 106 -34 5 -49 15 -82 54 -47 56 -109 96
-165 105 -98 16 -92 12 -91 58 1 103 -32 158 -108 178 -22 6 -50 19 -61 29
-31 28 -79 49 -146 65 -60 13 -67 18 -160 116 -97 100 -98 102 -114 178 -39
173 -115 268 -334 418 -71 49 -182 75 -305 72 -89 -2 -116 1 -236 33 -163 44
-259 58 -390 58 -384 0 -748 -220 -1000 -605 -129 -197 -328 -667 -395 -928
-50 -199 -60 -421 -41 -957 13 -372 -6 -585 -76 -879 -18 -76 -27 -96 -48
-109 -272 -164 -403 -327 -401 -500 0 -80 25 -136 91 -206 l50 -53 -74 -209
c-150 -421 -196 -521 -281 -612 -47 -51 -56 -56 -111 -64 -32 -5 -105 -12
-161 -15 -122 -6 -135 -15 -143 -102 l-5 -56 -195 -6 c-107 -3 -196 -7 -197
-7 -7 -4 -2 -462 5 -463 4 -1 72 -3 152 -5 80 -2 148 -3 152 -4 4 0 9 -46 10
-102 l3 -103 108 -3 107 -3 0 -1534 0 -1535 28 -5 c62 -14 75 -37 46 -90 -21
-39 -13 -79 19 -97 31 -18 368 -18 419 0 35 12 38 17 38 52 0 22 -6 43 -16 50
-9 8 -14 25 -12 44 3 29 6 31 48 34 24 2 50 8 57 14 9 7 13 46 13 132 l0 123
27 -4 c39 -4 913 -61 1053 -68 211 -10 237 -14 243 -36 3 -13 14 -19 31 -19
28 0 36 -26 15 -47 -15 -15 22 -76 52 -84 13 -4 97 -7 186 -8 158 -1 163 0
174 21 7 12 11 43 10 69 l-1 46 67 2 c58 1 282 -11 611 -35 l82 -6 0 -134 0
-134 48 0 c58 0 70 -8 78 -47 5 -27 2 -33 -22 -45 -26 -12 -29 -19 -32 -70 -3
-51 0 -59 21 -73 38 -24 178 -38 326 -31 177 9 218 19 226 57 10 43 -4 88 -31
105 -18 13 -24 25 -24 54 l0 38 66 7 67 7 -5 72 -5 71 161 0 c108 0 173 4 199
13 33 12 37 17 38 50 4 94 0 87 46 90 34 3 42 0 48 -17 3 -12 3 -25 0 -31 -3
-5 1 -10 9 -10 9 0 16 12 18 33 l3 32 165 7 c179 8 741 40 1099 63 124 8 249
15 278 15 l53 0 0 -117 c0 -157 1 -160 59 -169 25 -4 68 -8 95 -8 64 -1 71
-21 11 -30 l-45 -7 0 -54 c0 -54 0 -54 38 -64 102 -27 372 -20 408 10 10 8 14
34 14 84 l0 73 43 7 c23 4 45 13 49 19 4 6 8 707 8 1558 l0 1547 138 3 137 3
3 107 3 108 177 2 177 3 5 35 c5 34 6 32 18 -25 7 -33 22 -107 32 -165 65
-365 146 -768 224 -1115 70 -309 135 -703 171 -1024 21 -197 20 -238 -11 -305
-31 -68 -28 -85 28 -178 l40 -67 -27 -48 c-74 -129 -71 -119 -55 -148 13 -25
12 -28 -16 -50 -68 -57 -230 -149 -300 -171 -41 -13 -118 -29 -172 -34 -116
-13 -170 -26 -196 -48 -25 -23 -66 -117 -66 -153 0 -71 141 -110 390 -109 244
1 388 21 475 66 27 14 77 29 112 33 62 7 62 7 74 -21 6 -15 18 -28 25 -28 11
0 12 -15 7 -75 -8 -103 3 -118 104 -141 64 -14 105 -16 247 -10 214 8 255 17
394 84 61 29 77 33 97 24 18 -9 38 -7 88 7 94 27 107 36 107 74 0 18 7 43 16
55 29 42 29 130 -2 312 -5 32 -3 36 26 49 17 7 38 24 47 37 15 23 14 30 -2 83
-16 55 -17 77 -5 314 15 302 9 724 -15 942 -15 140 -29 229 -104 660 -20 111
-35 253 -46 410 -19 290 -41 570 -60 765 -8 80 -15 169 -15 198 0 29 -6 63
-12 75 -9 16 -13 83 -13 232 0 116 -4 226 -9 245 l-7 36 61 28 c81 38 120 71
120 103 0 29 -106 649 -120 703 -5 19 -16 94 -24 166 -10 92 -21 144 -36 174
-21 41 -21 44 -6 133 9 50 16 100 16 111 0 38 74 210 127 297 171 280 377 670
437 827 51 133 69 237 64 362 -8 174 -52 257 -194 366 -86 66 -364 249 -430
282 -24 12 -64 50 -98 92 -32 39 -79 85 -105 101 -33 20 -54 42 -67 70 -14 32
-29 47 -60 60 -43 19 -53 35 -73 114 -27 102 -8 192 69 330 28 50 58 115 67
145 l15 55 37 -3 c25 -3 41 1 50 12 12 14 10 16 -8 16 -33 0 -49 38 -60 148
-13 127 -49 217 -123 317 -94 124 -249 225 -399 259 -84 20 -245 27 -327 16z
m332 -55 c106 -29 257 -117 322 -186 68 -74 133 -197 148 -279 5 -25 -4 -13
-32 45 -50 103 -105 171 -197 245 -92 73 -176 114 -277 134 -97 20 -275 21
-393 1 -49 -8 -99 -15 -109 -15 -62 0 105 59 199 71 87 11 271 2 339 -16z
m-754 -95 c-42 -22 -93 -73 -114 -115 -9 -16 -16 -25 -16 -19 0 23 53 105 83
129 18 14 43 25 57 24 23 0 23 -1 -10 -19z m381 -5 c22 -14 -35 -25 -176 -32
-95 -4 -140 -11 -165 -23 -71 -36 -120 -112 -120 -187 0 -28 -3 -34 -10 -23
-26 40 -4 130 46 188 41 48 76 69 137 82 50 11 268 7 288 -5z m515 -79 c10 -8
17 -17 14 -19 -3 -3 -16 3 -30 13 -29 22 -14 27 16 6z m-50 -8 c5 -8 1 -9 -10
-5 -14 5 -17 3 -12 -8 8 -21 -1 -19 -13 3 -7 14 -6 18 10 19 10 1 22 -3 25 -9z
m-81 -48 c3 -5 11 -10 16 -10 6 0 7 5 3 11 -14 23 20 2 35 -21 12 -19 13 -22
2 -15 -10 6 -13 4 -9 -6 4 -10 -1 -15 -13 -15 -16 0 -17 2 -4 16 21 23 6 34
-17 13 -18 -16 -18 -16 -12 0 3 9 2 17 -4 17 -6 0 -12 -5 -14 -10 -2 -6 -9 -1
-16 10 -11 17 -10 20 7 20 11 0 23 -4 26 -10z m91 -5 c9 -8 11 -15 6 -15 -5 0
-15 7 -22 15 -7 8 -9 15 -6 15 4 0 14 -7 22 -15z m69 5 c3 -5 1 -10 -4 -10 -6
0 -11 5 -11 10 0 6 2 10 4 10 3 0 8 -4 11 -10z m-217 -33 c26 -39 28 -51 7
-44 -8 4 -17 2 -20 -3 -4 -6 -14 -10 -23 -10 -15 1 -15 2 -1 13 15 12 21 57 7
57 -4 0 -8 5 -8 10 0 19 15 10 38 -23z m-68 -39 c11 2 10 0 -2 -8 -19 -12 -58
2 -58 21 0 6 9 5 23 -3 12 -7 29 -11 37 -10z m-100 -13 c14 -19 14 -19 -2 -6
-10 7 -18 18 -18 24 0 6 1 8 3 6 1 -2 9 -13 17 -24z m-249 -27 c15 -28 5 -21
-21 15 -15 20 -17 27 -6 18 9 -8 22 -23 27 -33z m-5331 16 c0 -8 -5 -12 -10
-9 -6 4 -8 11 -5 16 9 14 15 11 15 -7z m130 9 c-1 -15 -38 -53 -52 -53 -10 1
-9 4 3 13 8 7 18 20 22 30 6 17 27 24 27 10z m-230 -33 c0 -16 -4 -30 -10 -30
-5 0 -10 14 -10 30 0 17 5 30 10 30 6 0 10 -13 10 -30z m60 20 c-20 -13 -33
-13 -25 0 3 6 14 10 23 10 15 0 15 -2 2 -10z m218 -10 c-7 -10 -14 -17 -17
-15 -4 4 18 35 25 35 2 0 -1 -9 -8 -20z m-328 -5 c0 -8 -4 -15 -10 -15 -5 0
-10 7 -10 15 0 8 5 15 10 15 6 0 10 -7 10 -15z m-60 -15 c0 -11 -4 -20 -9 -20
-14 0 -23 18 -16 30 10 17 25 11 25 -10z m246 -7 c-10 -10 -19 5 -10 18 6 11
8 11 12 0 2 -7 1 -15 -2 -18z m-41 8 c3 -5 1 -12 -5 -16 -5 -3 -10 1 -10 9 0
18 6 21 15 7z m335 -42 c-11 -24 -20 -38 -20 -31 0 17 31 84 36 79 3 -2 -5
-24 -16 -48z m-32 30 c-2 -6 -8 -10 -13 -10 -5 0 -11 4 -13 10 -2 6 4 11 13
11 9 0 15 -5 13 -11z m-576 -31 c-15 -15 -26 -4 -18 18 5 13 9 15 18 6 9 -9 9
-15 0 -24z m470 10 c-7 -7 -12 -8 -12 -2 0 14 12 26 19 19 2 -3 -1 -11 -7 -17z
m192 -10 c-10 -20 -19 -28 -22 -20 -2 7 4 22 14 33 25 27 27 24 8 -13z m96 17
c-7 -9 -15 -13 -17 -11 -7 7 7 26 19 26 6 0 6 -6 -2 -15z m4394 -7 c-4 -7 -24
-36 -45 -63 -44 -58 -56 -86 -75 -175 l-13 -65 2 66 c3 78 49 182 98 223 34
29 44 33 33 14z m-4053 -12 c85 -18 143 -47 197 -100 49 -47 106 -142 72 -121
-21 13 -9 -34 13 -52 43 -34 38 -38 -52 -37 -47 0 -91 1 -97 2 -6 1 -28 35
-48 75 -40 78 -76 115 -146 149 -114 55 -130 58 -205 43 -74 -16 -134 -47
-210 -108 -45 -37 -47 -37 -20 -8 36 40 132 107 183 128 97 41 209 51 313 29z
m-1167 -12 c4 -10 1 -14 -6 -12 -15 5 -23 28 -10 28 5 0 13 -7 16 -16z m778
-6 c-7 -7 -12 -8 -12 -2 0 14 12 26 19 19 2 -3 -1 -11 -7 -17z m-827 -16 c0
-18 -20 -15 -23 4 -3 10 1 15 10 12 7 -3 13 -10 13 -16z m-70 -32 c3 -5 2 -10
-4 -10 -5 0 -13 5 -16 10 -3 6 -2 10 4 10 5 0 13 -4 16 -10z m1190 -27 c63
-31 135 -101 166 -161 20 -40 23 -60 22 -134 -2 -57 -8 -97 -18 -115 l-15 -28
7 30 c4 17 7 64 7 105 -2 174 -123 305 -294 318 -49 4 -59 7 -40 13 38 11 110
-1 165 -28z m-1235 -3 c0 -5 -4 -10 -10 -10 -5 0 -10 5 -10 10 0 6 5 10 10 10
6 0 10 -4 10 -10z m1215 -29 c68 -34 114 -81 141 -147 24 -57 12 -171 -27
-252 -17 -35 -37 -66 -45 -69 -8 -3 -14 -10 -14 -15 0 -28 -96 -85 -176 -103
-52 -13 -106 -8 -181 15 -44 14 -143 93 -143 115 0 7 -7 19 -16 26 -14 11 -16
30 -12 114 4 83 9 109 32 153 40 79 92 131 171 169 63 31 76 34 138 30 49 -3
84 -13 132 -36z m4576 9 c11 -14 56 -86 101 -160 44 -74 85 -139 91 -145 18
-18 -2 104 -27 166 -14 32 -23 59 -21 59 2 0 21 -11 41 -25 20 -14 62 -32 93
-41 31 -9 63 -20 71 -24 19 -9 89 -203 89 -247 1 -18 6 -33 11 -33 15 0 30 45
30 91 0 27 4 39 14 39 17 0 26 22 26 65 0 21 9 44 24 62 20 23 31 27 67 26 82
-3 125 -85 117 -220 -4 -50 -13 -88 -32 -126 -32 -66 -46 -78 -94 -86 -39 -7
-39 -8 -56 -121 -9 -58 7 -44 32 30 16 47 22 53 46 55 26 1 44 16 71 59 9 13
17 9 61 -32 48 -44 54 -54 88 -163 20 -64 36 -125 36 -136 0 -39 -140 -148
-319 -247 -67 -37 -127 -66 -135 -63 -7 3 -25 38 -40 79 -15 40 -33 84 -40 97
-13 23 -10 27 45 82 94 91 69 88 -45 -6 -57 -47 -124 -96 -147 -110 l-43 -24
-146 148 c-80 82 -155 151 -165 155 -11 3 -31 15 -45 25 l-25 20 21 23 c33 35
44 63 44 108 0 54 -20 100 -68 152 -50 55 -68 89 -81 163 -14 75 -14 147 0
218 10 50 15 57 36 57 13 0 34 6 46 14 12 8 39 17 60 20 20 4 37 10 37 14 0 4
25 7 56 7 47 0 58 -4 75 -25z m-5831 0 c0 -5 -4 -10 -10 -10 -5 0 -10 5 -10
10 0 6 5 10 10 10 6 0 10 -4 10 -10z m742 -39 c37 -12 69 -25 72 -29 2 -4 -15
-48 -39 -97 l-43 -90 -128 -97 c-152 -114 -203 -154 -395 -310 -89 -71 -169
-127 -209 -146 -60 -27 -77 -30 -205 -34 -77 -3 -148 -9 -157 -13 -30 -12 -21
16 47 151 190 373 412 589 695 674 89 27 265 22 362 -9z m4631 -7 c-12 -18
-18 -60 -22 -157 -6 -126 -7 -129 -14 -69 -5 35 -5 89 -2 120 7 68 33 144 46
137 5 -4 1 -17 -8 -31z m-3583 -168 c49 -102 58 -219 24 -303 -15 -35 -43 -61
-30 -27 4 10 14 45 22 77 14 51 13 64 0 120 -9 34 -41 112 -71 172 l-55 110
40 -44 c22 -24 53 -71 70 -105z m-1920 94 c0 -5 -7 -7 -15 -4 -8 4 -12 10 -9
15 6 11 24 2 24 -11z m-53 -49 c0 -11 -5 -17 -9 -15 -11 7 -10 34 1 34 6 0 9
-9 8 -19z m-67 -71 c0 -5 -4 -10 -10 -10 -5 0 -10 5 -10 10 0 6 5 10 10 10 6
0 10 -4 10 -10z m925 -110 c-36 -69 -5 -236 70 -377 25 -47 45 -88 45 -91 0
-2 -7 -1 -16 2 -8 3 -13 2 -10 -3 7 -11 -92 -99 -277 -247 l-141 -113 -63 111
c-35 61 -63 114 -63 119 0 5 -4 9 -10 9 -5 0 -10 5 -10 10 0 15 -71 120 -81
120 -17 0 -9 -19 42 -102 28 -46 67 -114 86 -153 19 -38 41 -82 49 -97 17 -32
10 -69 -16 -93 -24 -22 -36 -14 -43 28 -18 110 -110 256 -193 307 -26 17 -32
25 -24 35 8 10 1 12 -35 7 -25 -2 -45 -2 -45 2 0 8 140 76 157 76 7 0 13 4 13
9 0 6 39 40 86 78 47 37 176 141 287 230 111 89 203 162 205 163 1 0 -4 -13
-13 -30z m831 -47 c-10 -10 -19 5 -10 18 6 11 8 11 12 0 2 -7 1 -15 -2 -18z
m-726 -129 c12 -24 45 -70 74 -101 37 -41 42 -50 20 -34 -73 54 -136 169 -133
245 1 24 3 20 9 -17 5 -26 18 -68 30 -93z m13 -115 c36 -55 43 -81 31 -113 -5
-14 -9 -13 -25 5 -31 36 -69 122 -90 204 -28 115 -23 130 14 40 18 -44 49
-105 70 -136z m1274 -11 c31 -37 71 -74 90 -83 18 -9 33 -20 33 -26 0 -18 -83
33 -138 85 -63 59 -165 182 -176 211 -9 25 116 -98 191 -187z m-626 134 c-22
-42 -131 -131 -185 -151 -78 -29 -106 -35 -106 -23 0 6 8 13 18 15 9 2 5 3
-10 2 -38 -2 -35 12 3 20 17 4 47 16 65 27 18 11 39 16 45 12 8 -4 9 -3 5 4
-4 7 -1 12 9 12 8 0 18 7 22 16 3 8 12 13 19 10 9 -3 11 0 7 11 -4 11 -2 14 5
9 7 -4 12 -3 12 2 0 5 11 8 25 7 14 -2 23 1 20 5 -3 5 -12 7 -20 3 -20 -7 -19
11 2 28 15 12 16 12 8 -1 -8 -13 -7 -13 8 -1 15 12 17 11 17 -5 0 -16 2 -16
16 4 19 27 30 23 15 -6z m554 -145 c108 -110 160 -147 204 -147 12 0 45 -22
74 -50 28 -27 55 -50 60 -50 9 0 9 -95 1 -139 -4 -17 -11 -31 -16 -31 -15 0
-192 182 -293 300 -49 58 -95 110 -101 115 -37 33 -71 115 -48 115 4 0 57 -51
119 -113z m-1076 28 c18 -9 31 -19 28 -22 -13 -12 -90 45 -109 82 -6 12 2 7
19 -11 17 -18 45 -39 62 -49z m981 -60 c66 -75 233 -257 283 -309 41 -42 43
-46 24 -46 -14 0 -112 98 -229 230 -146 165 -168 193 -168 219 l0 26 19 -30
c10 -16 42 -57 71 -90z m358 -10 c2 -2 -5 -8 -17 -14 -17 -9 -29 -5 -75 26
-31 21 -56 41 -56 45 0 6 137 -47 148 -57z m-2753 24 c11 -17 -1 -21 -15 -4
-8 9 -8 15 -2 15 6 0 14 -5 17 -11z m2245 2 c0 -13 -26 -32 -33 -24 -8 7 11
33 24 33 5 0 9 -4 9 -9z m-134 -18 c4 -10 6 -21 6 -25 -3 -13 11 -9 45 12 20
12 30 14 27 6 -3 -7 -19 -20 -37 -29 -27 -13 -29 -16 -10 -16 12 -1 25 4 28 9
12 20 25 9 25 -21 0 -27 -2 -30 -15 -19 -26 22 -16 0 22 -48 87 -108 157 -182
173 -182 27 0 70 39 70 64 0 12 -7 32 -16 44 -8 12 -12 27 -9 32 15 24 48 4
134 -85 51 -52 96 -95 102 -95 21 0 7 -18 -23 -31 -18 -7 -61 -32 -95 -56 -34
-24 -65 -43 -68 -43 -4 0 -15 -10 -24 -21 -17 -22 -17 -22 -45 25 -15 25 -33
46 -41 46 -22 0 -18 18 5 30 22 12 60 5 60 -10 0 -17 49 -62 59 -55 18 11 12
30 -16 58 -54 51 -109 49 -148 -6 -23 -32 -18 -59 17 -105 43 -56 54 -43 16
18 -42 68 -29 75 17 8 l36 -53 -41 -36 c-22 -20 -40 -42 -40 -48 0 -6 -5 -11
-11 -11 -6 0 -9 7 -5 15 3 9 0 15 -9 15 -8 0 -15 6 -15 13 0 16 -76 97 -91 97
-6 0 -9 6 -6 14 8 21 -45 79 -68 75 -25 -5 -32 -39 -11 -51 9 -5 33 -35 55
-66 21 -31 60 -81 86 -109 26 -29 42 -53 37 -53 -25 0 -433 476 -431 503 0 7
8 1 17 -13 9 -14 45 -54 80 -90 51 -53 64 -62 73 -50 7 11 8 8 4 -11 -5 -21
-1 -29 20 -43 30 -20 55 -15 55 10 0 22 -29 54 -48 54 -8 0 -12 6 -9 14 3 8 3
16 -1 18 -4 2 -25 26 -47 53 -22 28 -48 59 -57 69 -10 11 -18 23 -18 26 0 9
162 170 171 170 4 0 10 -8 15 -17z m-2136 -33 c0 -5 -4 -10 -10 -10 -5 0 -10
5 -10 10 0 6 5 10 10 10 6 0 10 -4 10 -10z m2260 6 c0 -11 -19 -15 -25 -6 -3
5 1 10 9 10 9 0 16 -2 16 -4z m13 -33 c-7 -3 -9 -11 -6 -19 3 -7 10 -11 16 -7
6 3 26 -11 45 -33 19 -21 29 -30 21 -20 -9 12 -9 17 -2 13 7 -4 26 -28 43 -54
23 -33 28 -49 20 -57 -8 -8 -19 -2 -41 24 -16 19 -50 58 -74 87 -29 33 -43 57
-39 67 3 9 11 13 17 9 8 -5 8 -8 0 -10z m590 3 c46 -19 66 -46 73 -97 6 -43
-17 -246 -31 -283 -8 -17 -6 -17 23 -2 17 9 43 16 57 16 23 0 25 -3 19 -22 -3
-13 -7 -23 -8 -24 0 0 -28 -11 -61 -25 -46 -19 -61 -30 -63 -48 -4 -25 21 -59
53 -72 16 -6 17 -8 3 -8 -22 -1 -78 46 -89 77 -8 20 -5 32 14 61 22 34 32 80
52 256 9 82 -34 153 -95 158 -20 1 -25 8 -13 20 10 11 30 8 66 -7z m-548 -16
c3 -6 -1 -7 -9 -4 -18 7 -21 14 -7 14 6 0 13 -4 16 -10z m-2 -100 c37 -41 67
-78 67 -82 0 -14 22 -8 34 8 11 14 13 14 25 0 11 -13 11 -16 -2 -16 -8 0 -17
-5 -19 -11 -7 -22 -43 2 -93 63 -92 110 -100 121 -89 117 6 -2 41 -38 77 -79z
m532 35 c21 -20 33 -45 22 -45 -2 0 -18 16 -37 35 -19 19 -28 35 -22 35 7 0
24 -11 37 -25z m4452 -42 c3 -10 19 -48 36 -85 34 -76 32 -90 -26 -178 -88
-133 -177 -229 -306 -329 -72 -56 -131 -106 -131 -111 0 -6 -4 -10 -10 -10 -5
0 -10 26 -10 58 0 70 -24 187 -45 218 -26 40 -38 30 -31 -26 7 -52 6 -54 -33
-43 -21 5 -23 10 -18 47 3 24 14 48 26 57 11 9 84 52 163 97 236 132 358 235
358 301 0 26 18 28 27 4z m-6879 -18 c107 -25 207 -109 253 -211 36 -79 47
-143 28 -155 -22 -14 -147 -11 -156 4 -5 7 -10 -12 -14 -48 -6 -56 -6 -55 -6
22 1 45 -2 85 -5 88 -3 3 -6 -11 -6 -32 0 -21 -6 -49 -11 -63 -10 -23 -11 -23
-5 7 3 17 1 34 -5 38 -6 3 -11 14 -11 23 0 34 -49 120 -91 160 -64 62 -108 75
-231 70 -123 -5 -177 -28 -249 -105 -40 -43 -87 -135 -90 -176 0 -8 -2 -8 -5
-1 -9 21 37 123 81 180 64 82 96 101 231 134 50 12 135 -2 208 -35 57 -25 124
-90 154 -150 12 -22 21 -33 21 -25 1 29 -59 118 -101 153 -93 75 -179 96 -303
73 -44 -8 -82 -12 -84 -10 -2 2 13 11 35 20 21 9 53 22 69 29 17 8 39 16 50
18 46 10 184 6 243 -8z m1172 -35 c-8 -5 -24 -9 -35 -9 l-20 0 20 9 c11 5 27
9 35 9 13 1 13 0 0 -9z m295 -145 c40 -40 44 -47 33 -65 -7 -11 -15 -20 -18
-20 -8 0 -100 188 -99 203 0 6 9 -7 19 -31 11 -23 40 -63 65 -87z m-435 82
c-14 -12 -68 -55 -120 -94 -52 -39 -137 -103 -188 -142 -85 -64 -112 -80 -112
-66 0 6 355 276 398 302 47 29 53 29 22 0z m1655 -17 c44 -19 102 -66 93 -75
-3 -3 -29 9 -57 27 -39 24 -67 33 -112 36 -49 4 -59 7 -59 23 0 16 6 18 48 13
26 -4 65 -14 87 -24z m4364 -64 c32 -42 41 -61 41 -92 l-1 -39 -16 30 c-8 17
-29 52 -45 78 l-31 48 -24 -36 c-32 -47 -38 -45 -13 5 11 21 20 49 20 61 0 28
14 17 69 -55z m-7153 39 c116 -60 158 -169 120 -310 -29 -111 -78 -170 -185
-222 -108 -53 -245 -28 -337 62 -45 43 -54 58 -64 109 -23 113 14 222 101 300
68 61 133 85 235 85 68 1 89 -3 130 -24z m2464 -45 c0 -5 -6 -10 -13 -10 -20
0 -189 -88 -214 -112 -13 -12 -23 -18 -23 -15 0 4 -12 0 -27 -9 -26 -16 -17
-6 67 71 25 22 163 81 198 84 6 1 12 -3 12 -9z m325 -5 l30 -15 -34 6 c-19 4
-54 6 -78 6 -24 -1 -43 3 -43 8 0 15 91 11 125 -5z m-971 -186 c49 -57 107
-121 130 -141 34 -30 38 -38 24 -43 -38 -15 -84 25 -179 151 -114 152 -129
175 -129 194 1 16 11 6 154 -161z m716 147 c0 -7 -11 -21 -25 -30 -21 -14 -25
-24 -25 -62 0 -25 5 -54 11 -66 17 -32 -22 -19 -41 14 -13 25 -13 32 4 80 10
29 23 59 28 66 14 16 48 15 48 -2z m-148 -22 c-24 -14 -46 -24 -49 -21 -5 6
65 46 82 46 6 1 -9 -11 -33 -25z m388 19 c0 -14 -35 -93 -41 -93 -7 0 -19 52
-19 81 0 14 7 19 30 19 17 0 30 -3 30 -7z m110 -9 c0 -3 -7 -12 -15 -20 -13
-14 -15 -13 -15 5 0 12 6 21 15 21 8 0 15 -3 15 -6z m110 -14 c12 -8 9 -10
-12 -10 -16 0 -28 5 -28 10 0 13 20 13 40 0z m3402 -46 c20 -41 23 -54 12 -54
-8 0 -14 6 -14 14 0 7 -7 19 -16 26 -13 12 -14 8 -8 -41 3 -30 6 -56 6 -59 0
-23 -5 -30 -22 -30 -22 0 -67 -62 -96 -132 -10 -27 -22 -48 -27 -48 -11 0 1
44 35 130 17 41 39 106 49 144 21 74 36 106 47 105 4 0 19 -25 34 -55z m1013
-70 c180 -110 374 -254 395 -294 10 -18 8 -18 -37 2 -27 11 -68 39 -93 63 -25
24 -122 94 -216 157 -221 148 -223 150 -224 170 0 15 9 12 48 -15 26 -19 83
-56 127 -83z m-5740 76 c83 -122 159 -222 193 -252 44 -40 112 -57 241 -62 64
-2 75 -5 92 -27 11 -14 18 -39 18 -59 l-1 -35 -8 34 c-9 36 -24 51 -55 51 -75
0 -244 24 -273 37 -18 9 -52 41 -75 72 -22 31 -73 99 -112 151 -67 88 -80 121
-52 120 7 -1 21 -14 32 -30z m1245 23 c0 -5 -5 -15 -10 -23 -8 -12 -10 -11
-10 8 0 12 5 22 10 22 6 0 10 -3 10 -7z m50 -17 c0 -8 -4 -18 -10 -21 -5 -3
-10 3 -10 14 0 12 5 21 10 21 6 0 10 -6 10 -14z m77 8 c-3 -3 -12 -4 -19 -1
-8 3 -5 6 6 6 11 1 17 -2 13 -5z m-27 -35 c-7 -11 -14 -18 -17 -15 -8 8 5 36
17 36 7 0 7 -6 0 -21z m-730 8 c0 -2 -10 -12 -22 -23 l-23 -19 19 23 c18 21
26 27 26 19z m785 -16 c-3 -6 -11 -11 -17 -11 -6 0 -6 6 2 15 14 17 26 13 15
-4z m63 -22 c-13 -17 -24 -25 -26 -20 -2 6 4 18 12 27 9 8 16 20 16 25 0 6 4
7 10 4 6 -4 1 -18 -12 -36z m-472 -13 c-20 -31 -27 -32 -44 -6 -11 18 -10 20
13 20 17 0 25 6 25 17 0 13 3 14 11 6 9 -9 8 -18 -5 -37z m-477 -40 c-23 -31
-47 -56 -52 -56 -6 0 1 13 16 28 15 15 27 35 27 43 0 24 31 62 42 51 6 -6 -6
-30 -33 -66z m1020 12 c-17 -10 -34 -17 -37 -14 -9 9 42 44 56 39 8 -4 2 -12
-19 -25z m3021 -29 c-71 -62 -92 -67 -25 -6 33 30 62 53 65 50 3 -3 -15 -22
-40 -44z m-4070 38 c0 -2 -21 -26 -47 -53 -33 -34 -42 -40 -29 -19 24 38 57
75 68 75 4 0 8 -1 8 -3z m290 -32 l34 -35 -32 0 c-25 0 -44 -11 -84 -50 -29
-28 -55 -47 -59 -43 -4 5 -10 22 -14 40 -6 30 -3 35 52 77 32 25 60 46 64 46
3 0 20 -16 39 -35z m410 26 c0 -11 -43 -28 -92 -37 -33 -5 -38 -4 -38 13 0 11
3 23 7 26 10 10 123 8 123 -2z m-3331 -197 c44 -99 140 -167 256 -180 31 -4
58 -11 61 -15 2 -5 16 -4 29 1 14 5 25 6 25 2 0 -4 4 -2 8 4 4 6 31 24 61 40
102 55 199 184 201 266 0 15 5 30 10 33 22 13 -2 -122 -30 -175 -6 -12 -9 -29
-6 -37 8 -19 -58 -85 -113 -113 -58 -29 -141 -59 -141 -50 0 4 -30 10 -67 13
-38 3 -99 17 -138 31 -80 29 -124 70 -168 159 -23 47 -27 67 -26 134 l2 78 7
-71 c4 -39 17 -93 29 -120z m3485 162 c74 -28 165 -83 214 -130 78 -72 104
-191 63 -281 -28 -63 -131 -145 -181 -145 -20 0 -40 66 -34 113 9 62 -29 141
-100 213 -53 54 -55 58 -50 98 6 39 3 44 -30 74 -37 32 -37 32 -19 57 23 31
55 32 137 1z m256 17 c0 -5 -15 -16 -33 -26 l-32 -17 30 25 c33 27 35 28 35
18z m3640 -33 c-12 -16 -24 -30 -26 -30 -3 0 4 14 16 30 12 17 24 30 26 30 3
0 -4 -13 -16 -30z m-4610 5 c-7 -9 -15 -13 -19 -10 -3 3 1 10 9 15 21 14 24
12 10 -5z m3810 -36 c-38 -33 -250 -143 -250 -131 0 19 54 56 156 107 60 29
114 54 119 54 6 0 -6 -13 -25 -30z m-5491 -15 c-38 -28 -89 -57 -89 -50 0 7
104 76 114 76 6 0 -6 -12 -25 -26z m1511 13 c0 -2 -10 -12 -22 -23 l-23 -19
19 23 c18 21 26 27 26 19z m-1923 -51 c-6 -39 -47 -128 -47 -100 0 5 7 19 15
30 8 10 17 40 21 67 4 26 9 47 12 47 2 0 2 -20 -1 -44z m2461 15 c-6 -10 -24
-26 -39 -37 -32 -21 -36 -36 -14 -54 8 -7 15 -18 15 -26 0 -23 21 -27 43 -8
12 11 45 30 72 44 28 13 54 30 58 38 7 10 12 10 23 1 16 -13 18 -29 4 -29 -19
0 -196 -104 -250 -148 -30 -24 -83 -70 -117 -103 -59 -56 -96 -81 -59 -40 11
12 15 28 11 49 -4 23 -1 31 14 35 11 2 24 0 30 -6 8 -8 11 -6 11 7 0 12 5 16
15 12 9 -3 15 0 15 8 0 7 9 21 20 31 25 23 25 37 1 60 -19 17 -22 15 -83 -45
-107 -105 -108 -106 -108 -91 0 8 7 19 16 25 19 15 25 64 9 74 -7 4 -16 22
-20 41 -5 23 -4 31 4 27 6 -4 11 -13 11 -20 0 -7 10 -22 21 -35 l21 -23 32 30
c17 16 59 50 94 77 34 26 62 51 62 55 0 4 15 15 34 25 19 11 33 22 30 26 -5 8
-61 -17 -87 -39 -22 -19 -32 -10 -17 17 6 12 21 21 35 21 13 0 26 4 29 9 7 10
25 9 44 -2 8 -5 12 -2 12 8 0 9 4 13 10 10 6 -4 6 -12 -2 -24z m637 19 c-3 -5
-11 -10 -16 -10 -6 0 -7 5 -4 10 3 6 11 10 16 10 6 0 7 -4 4 -10z m-884 -23
c-13 -13 -26 -3 -16 12 3 6 11 8 17 5 6 -4 6 -10 -1 -17z m369 15 c0 -4 -17
-16 -37 -27 -20 -11 -48 -30 -61 -42 -26 -24 -66 -31 -60 -11 4 12 24 25 98
67 37 21 60 26 60 13z m587 -9 c2 -6 -7 -8 -23 -5 -19 3 -22 7 -12 13 15 10
30 7 35 -8z m-498 -45 c2 -15 -12 -13 -15 2 -1 8 -5 24 -9 35 -4 13 -1 11 8
-5 8 -14 15 -28 16 -32z m-2214 0 c-12 -74 -65 -176 -110 -214 -62 -50 -65
-41 -8 19 49 51 71 99 88 187 9 42 13 50 26 50 7 0 8 -16 4 -42z m1600 11 c9
-17 14 -33 11 -36 -4 -4 -36 49 -36 62 0 13 11 2 25 -26z m128 -38 c-2 -3 -11
3 -20 12 -14 14 -14 18 -2 33 13 16 14 15 20 -12 3 -16 4 -31 2 -33z m-155 9
c22 -29 30 -80 13 -80 -5 0 -11 3 -13 8 -1 4 -20 20 -42 36 l-39 29 24 18 c31
24 32 24 57 -11z m208 -15 c-20 -15 -36 -19 -36 -10 0 5 38 23 50 24 3 0 -4
-6 -14 -14z m935 -8 c-13 -13 -26 -3 -16 12 3 6 11 8 17 5 6 -4 6 -10 -1 -17z
m1157 6 c18 -16 187 -315 327 -578 26 -49 80 -149 121 -221 41 -72 74 -134 74
-137 0 -3 20 -39 45 -81 97 -164 117 -219 86 -235 -10 -6 -146 -19 -303 -31
-216 -16 -292 -18 -310 -10 -15 7 -37 37 -57 78 -18 37 -57 104 -87 149 l-53
82 52 18 c28 10 74 29 102 43 43 22 50 29 53 58 3 34 -19 72 -41 72 -6 0 -21
10 -33 21 -20 19 -21 23 -8 36 7 8 14 30 14 48 0 54 -32 69 -159 74 l-105 3
45 22 c45 21 61 54 41 84 -14 22 -92 34 -168 27 l-71 -7 -55 93 c-152 257
-152 259 -126 275 17 11 537 132 569 133 15 1 36 -7 47 -16z m2206 5 c-4 -7
-33 -49 -64 -93 -82 -117 -160 -251 -245 -427 -75 -154 -131 -242 -120 -188 3
14 10 57 15 95 14 92 55 301 78 395 12 50 30 92 53 123 19 25 37 46 40 47 4 0
10 -25 14 -55 3 -30 10 -55 14 -55 5 0 28 17 52 39 127 111 182 152 163 119z
m-7225 -87 c6 -19 9 -36 7 -38 -2 -2 -11 17 -20 44 -9 26 -12 43 -7 38 4 -6
13 -25 20 -44z m3364 30 c15 -8 27 -18 27 -23 0 -5 -12 -13 -27 -19 -91 -33
-198 -102 -303 -194 -41 -36 -81 -65 -88 -65 -7 0 -10 -4 -7 -10 3 -6 -1 -7
-9 -4 -9 3 -16 13 -16 20 0 12 -4 12 -21 3 -17 -9 -20 -8 -12 4 33 57 217 218
296 259 43 22 118 48 127 44 3 -1 17 -8 33 -15z m62 -44 c-9 -5 -19 -6 -22 -3
-4 3 -1 6 5 6 7 0 9 7 5 18 -6 15 -5 15 11 3 16 -13 16 -15 1 -24z m3292 -4
c10 -38 10 -38 21 -13 10 23 11 23 11 4 1 -12 -15 -61 -35 -110 -44 -111 -130
-366 -139 -417 -4 -20 -12 -40 -18 -44 -19 -12 -1 205 27 307 23 86 89 281
102 302 11 17 21 7 31 -29z m-4118 15 c0 -7 -4 -22 -9 -33 -7 -17 -9 -15 -9
13 -1 17 4 32 9 32 6 0 10 -6 9 -12z m5690 -33 c44 -22 73 -94 79 -196 13
-224 -55 -399 -366 -949 -118 -208 -365 -570 -389 -570 -2 0 20 35 51 78 30
42 92 136 137 207 230 362 421 714 492 905 82 223 75 406 -20 508 -34 35 -28
40 16 17z m-5319 -11 c0 -8 -5 -12 -10 -9 -6 4 -8 11 -5 16 9 14 15 11 15 -7z
m535 -68 c19 -44 19 -56 1 -56 -14 0 -46 82 -46 117 0 15 2 14 15 -5 9 -12 22
-37 30 -56z m-3568 48 c-3 -3 -12 -4 -19 -1 -8 3 -5 6 6 6 11 1 17 -2 13 -5z
m2573 -11 c14 -9 26 -17 28 -19 2 -1 -9 -21 -24 -44 -31 -47 -39 -42 -46 33
-6 52 2 58 42 30z m187 -25 c-3 -8 -6 -5 -6 6 -1 11 2 17 5 13 3 -3 4 -12 1
-19z m573 -37 c0 -5 -7 -17 -16 -25 -8 -9 -11 -16 -5 -16 5 0 13 5 16 10 8 13
25 13 25 0 0 -5 -17 -18 -37 -29 -21 -11 -31 -20 -22 -21 8 0 22 -6 30 -12 8
-7 12 -12 10 -11 -8 4 -61 -28 -61 -37 0 -6 -4 -10 -10 -10 -5 0 -10 7 -10 15
0 8 -7 15 -15 15 -18 0 -18 4 -4 33 7 15 2 13 -15 -8 -14 -16 -26 -24 -26 -17
0 13 15 27 90 86 50 40 50 40 50 27z m-680 -8 c0 -10 -42 -53 -52 -53 -5 0 1
14 14 30 20 28 38 39 38 23z m-2680 -43 c0 -5 -2 -10 -4 -10 -3 0 -8 5 -11 10
-3 6 -1 10 4 10 6 0 11 -4 11 -10z m1047 -70 c6 -50 -3 -64 -25 -37 -18 22
-23 62 -12 92 10 26 13 28 21 13 6 -10 13 -40 16 -68z m2563 30 c0 -11 -4 -20
-10 -20 -5 0 -10 2 -10 4 0 2 -3 11 -6 20 -4 11 -1 16 10 16 9 0 16 -8 16 -20z
m-3338 -94 c34 -18 41 -31 98 -175 73 -183 147 -351 259 -586 l80 -170 -27
-19 c-15 -11 -67 -59 -116 -108 -83 -83 -93 -90 -145 -99 -31 -6 -112 -24
-180 -40 -68 -17 -125 -28 -127 -26 -2 2 0 17 6 33 22 64 50 287 61 477 10
189 3 494 -17 732 l-6 69 39 -34 c21 -19 55 -44 75 -54z m3254 67 c19 -25 17
-43 -4 -43 -20 0 -152 -84 -196 -125 -30 -28 -39 -25 -51 13 -7 24 9 31 19 7
8 -22 29 -18 23 4 -3 14 0 17 14 14 20 -6 27 21 9 32 -5 3 -10 10 -10 15 0 20
133 96 174 99 5 1 15 -7 22 -16z m-3516 -7 c0 -3 -4 -8 -10 -11 -5 -3 -10 -1
-10 4 0 6 5 11 10 11 6 0 10 -2 10 -4z m90 -16 c0 -5 -7 -7 -15 -4 -8 4 -15 8
-15 10 0 2 7 4 15 4 8 0 15 -4 15 -10z m3540 -31 c0 -4 -21 -14 -47 -24 -112
-42 -240 -120 -266 -162 -4 -7 -22 -20 -38 -29 -27 -14 -30 -14 -22 0 21 37
116 126 170 159 33 20 86 43 119 52 32 8 61 20 63 26 3 11 20 -7 21 -22z
m-3630 -19 c0 -5 -7 -10 -15 -10 -8 0 -15 5 -15 10 0 6 7 10 15 10 8 0 15 -4
15 -10z m95 -10 c4 -6 -5 -10 -19 -10 -14 0 -26 5 -26 10 0 6 9 10 19 10 11 0
23 -4 26 -10z m1114 -200 c66 -91 215 -298 331 -460 116 -162 232 -323 258
-358 100 -134 128 -179 146 -232 24 -71 33 -243 16 -319 -27 -124 -120 -261
-217 -318 -57 -33 -66 -24 -12 12 56 39 126 119 156 178 41 82 81 270 54 253
-5 -3 -45 -6 -89 -7 -43 -1 -83 -4 -88 -8 -5 -3 -9 -35 -9 -70 0 -63 -1 -65
-29 -72 -28 -8 -28 -8 -21 29 10 55 8 191 -5 245 -32 145 -161 302 -307 375
-45 23 -110 49 -145 58 -35 10 -67 20 -71 24 -19 16 95 -11 147 -34 31 -14 59
-26 61 -26 3 0 26 -10 51 -22 44 -20 51 -21 123 -9 42 7 88 20 104 27 26 14
27 15 11 40 -11 16 -20 21 -24 14 -4 -6 -41 -16 -83 -22 -79 -11 -82 -11 -247
36 -39 11 -100 16 -211 16 l-157 0 -145 273 c-79 149 -161 304 -181 344 l-35
71 73 36 c73 35 209 73 289 81 23 2 34 2 25 -1 -13 -4 -18 -16 -18 -45 0 -42
17 -52 40 -24 15 19 34 20 27 2 -3 -8 1 -14 9 -14 9 0 12 8 8 26 -5 25 -4 25
12 -4 10 -18 19 -25 22 -17 2 7 -2 20 -9 30 -11 13 -9 13 8 -2 13 -10 20 -22
18 -27 -3 -4 0 -11 6 -14 5 -4 8 -14 4 -22 -4 -13 -3 -14 10 -3 12 10 15 10
15 -3 0 -9 5 -19 10 -22 20 -12 9 13 -32 74 -23 34 -50 67 -60 72 -16 9 -17
13 -7 25 17 21 24 13 168 -186z m-184 160 c3 -6 -1 -7 -9 -4 -18 7 -21 14 -7
14 6 0 13 -4 16 -10z m4493 -25 c48 -8 112 -21 142 -29 244 -64 256 -69 420
-191 58 -43 142 -106 188 -139 98 -72 96 -62 36 -225 l-38 -102 -39 7 c-22 3
-54 12 -71 19 -33 14 -159 114 -209 166 -31 32 -47 35 -91 16 l-30 -13 32 -13
c46 -19 34 -35 -27 -39 l-52 -3 -18 43 c-11 24 -22 57 -26 75 -6 30 -5 32 50
52 31 12 60 21 65 21 6 0 10 6 10 14 0 12 -15 10 -75 -11 -72 -24 -75 -26 -75
-56 0 -18 4 -49 9 -69 7 -30 6 -38 -5 -38 -23 0 -34 36 -36 126 l-3 88 68 19
c38 12 66 25 64 31 -3 6 -11 9 -18 7 -8 -2 -39 -10 -69 -18 -30 -8 -61 -19
-67 -25 -7 -6 -13 -33 -13 -62 l-1 -51 -19 35 c-11 19 -19 52 -20 73 0 49 31
80 101 101 29 9 63 23 76 31 28 18 32 41 4 23 -14 -8 -31 -8 -72 0 -43 9 -217
55 -239 63 -7 2 -49 59 -62 83 -8 16 -7 18 6 13 9 -4 55 -13 104 -22z m-5452
-12 c-10 -10 -19 5 -10 18 6 11 8 11 12 0 2 -7 1 -15 -2 -18z m324 -13 c21
-42 25 -60 12 -60 -4 0 -14 17 -21 38 -8 20 -16 43 -18 50 -11 28 8 9 27 -28z
m-400 20 c0 -5 -2 -10 -4 -10 -3 0 -8 5 -11 10 -3 6 -1 10 4 10 6 0 11 -4 11
-10z m115 0 c3 -5 1 -10 -4 -10 -6 0 -11 5 -11 10 0 6 2 10 4 10 3 0 8 -4 11
-10z m4765 -25 c21 -26 1 -38 -112 -70 -45 -12 -58 -20 -58 -35 0 -10 4 -22
10 -25 10 -6 -16 -55 -29 -55 -4 0 -22 32 -41 71 l-33 70 20 21 c34 33 219 51
243 23z m-933 -47 c59 -62 83 -115 82 -185 0 -32 -4 -67 -9 -78 -6 -14 -7 -7
-4 21 3 22 1 58 -5 79 -12 46 -71 135 -88 135 -7 0 -13 5 -13 11 0 8 -4 8 -13
0 -10 -8 -22 -7 -45 1 -18 7 -32 15 -32 18 0 7 60 38 75 39 6 1 29 -18 52 -41z
m-204 5 c71 -36 138 -180 119 -257 -9 -40 -10 -40 -11 -9 -1 30 -26 109 -40
125 -3 4 -7 -12 -8 -35 -2 -29 0 -37 7 -27 8 12 10 12 16 -3 9 -24 1 -30 -41
-33 -30 -3 -35 0 -35 19 0 81 -99 214 -177 235 -31 9 -23 10 52 5 50 -3 102
-12 118 -20z m-3633 -5 c0 -13 -32 -6 -37 9 -3 7 3 9 16 6 12 -3 21 -10 21
-15z m-100 2 c0 -5 -2 -10 -4 -10 -3 0 -8 5 -11 10 -3 6 -1 10 4 10 6 0 11 -4
11 -10z m3230 -6 c0 -8 -4 -12 -10 -9 -5 3 -10 10 -10 16 0 5 5 9 10 9 6 0 10
-7 10 -16z m349 -14 c68 -34 130 -129 131 -197 0 -29 -3 -33 -25 -33 -15 0
-25 6 -25 15 0 29 -54 128 -88 161 -42 41 -91 58 -146 51 l-41 -5 30 14 c44
20 120 17 164 -6z m-103 -30 c20 0 92 -68 111 -104 22 -43 12 -133 -21 -191
-25 -42 -99 -95 -113 -81 -3 3 10 11 28 19 94 40 121 148 62 249 -25 42 -73
71 -107 62 -14 -3 -46 -24 -71 -46 -50 -44 -69 -44 -53 3 15 45 102 105 136
93 8 -2 20 -4 28 -4z m2147 -31 l39 -10 -45 -29 c-25 -16 -49 -36 -55 -46 -8
-14 -15 -7 -46 45 -20 34 -36 66 -36 70 0 5 24 2 53 -5 28 -8 69 -19 90 -25z
m-5623 21 c0 -5 -5 -10 -11 -10 -5 0 -7 5 -4 10 3 6 8 10 11 10 2 0 4 -4 4
-10z m100 0 c0 -5 -7 -10 -15 -10 -8 0 -15 5 -15 10 0 6 7 10 15 10 8 0 15 -4
15 -10z m335 -21 c8 -23 81 -179 222 -472 53 -109 93 -200 89 -204 -3 -3 -7
-4 -9 -2 -6 7 -177 359 -177 364 0 3 -30 69 -66 147 -80 173 -86 188 -74 188
5 0 12 -9 15 -21z m4603 -15 c18 -12 21 -19 11 -30 -6 -7 -15 -11 -20 -8 -5 3
-9 0 -9 -5 0 -6 -18 -11 -41 -11 -22 0 -71 -7 -109 -16 -59 -13 -74 -21 -106
-57 -47 -51 -31 -59 31 -15 44 31 52 33 145 36 92 4 98 3 105 -17 10 -32 0
-38 -67 -46 -90 -9 -120 -21 -158 -60 -40 -41 -35 -43 29 -10 27 13 88 31 137
39 49 8 99 18 110 21 26 8 38 -16 21 -38 -7 -8 -52 -29 -102 -47 -90 -33 -145
-63 -145 -81 0 -5 9 -9 19 -9 11 0 33 -18 50 -39 32 -40 41 -62 19 -43 -7 5
-32 15 -56 22 -58 15 -108 67 -166 173 -66 122 -67 139 -14 204 l43 53 125 0
c99 0 130 -3 148 -16z m-5018 -24 c-19 -13 -30 -13 -30 0 0 6 10 10 23 10 18
0 19 -2 7 -10z m80 0 c0 -5 -7 -10 -15 -10 -8 0 -15 5 -15 10 0 6 7 10 15 10
8 0 15 -4 15 -10z m3403 -38 c30 -32 50 -98 26 -90 -8 3 -37 -12 -66 -34 l-52
-38 -7 35 c-3 19 -4 53 -2 75 3 33 1 39 -11 35 -9 -4 -5 5 8 19 32 34 70 33
104 -2z m-3417 -39 c-10 -10 -19 5 -10 18 6 11 8 11 12 0 2 -7 1 -15 -2 -18z
m3871 -20 c-3 -10 -5 -4 -5 12 0 17 2 24 5 18 2 -7 2 -21 0 -30z m-629 11 c33
-23 31 -96 -3 -130 -21 -21 -31 -24 -58 -19 -68 15 -88 85 -38 136 33 32 65
37 99 13z m4192 -25 l0 -32 -77 7 c-42 3 -105 6 -140 6 -60 0 -63 1 -53 19 12
23 37 27 173 29 l97 2 0 -31z m-7510 -19 c0 -5 -4 -10 -10 -10 -5 0 -10 5 -10
10 0 6 5 10 10 10 6 0 10 -4 10 -10z m90 0 c0 -5 -4 -10 -10 -10 -5 0 -10 5
-10 10 0 6 5 10 10 10 6 0 10 -4 10 -10z m-5 -60 c3 -5 -1 -10 -10 -10 -9 0
-13 5 -10 10 3 6 8 10 10 10 2 0 7 -4 10 -10z m-68 -6 c-3 -3 -12 -4 -19 -1
-8 3 -5 6 6 6 11 1 17 -2 13 -5z m6373 -66 c-1 -94 -110 -408 -142 -408 -15 0
-18 9 -18 55 0 54 13 74 23 35 9 -35 24 -21 30 28 6 55 88 321 100 322 4 0 7
-15 7 -32z m265 -93 c71 -38 124 -70 118 -72 -7 -3 -82 23 -168 57 -86 34
-158 60 -160 58 -2 -2 -8 -15 -14 -28 -8 -20 -10 -12 -10 43 l-1 68 53 -29
c28 -16 110 -60 182 -97z m-6570 93 c-19 -11 -30 -5 -21 11 4 6 14 7 22 4 15
-5 14 -7 -1 -15z m3175 -35 c0 -7 -39 17 -46 28 -3 6 5 3 20 -6 14 -10 26 -19
26 -22z m-3260 -7 c0 -3 -4 -8 -10 -11 -5 -3 -10 -1 -10 4 0 6 5 11 10 11 6 0
10 -2 10 -4z m85 -6 c3 -5 -1 -10 -9 -10 -9 0 -16 5 -16 10 0 6 4 10 9 10 6 0
13 -4 16 -10z m25 -60 c0 -5 -7 -10 -15 -10 -8 0 -15 5 -15 10 0 6 7 10 15 10
8 0 15 -4 15 -10z m5653 -6 c33 -16 34 -18 24 -50 -6 -19 -13 -34 -17 -34 -4
0 -19 23 -34 50 -29 54 -25 59 27 34z m-5753 -4 c0 -5 -5 -10 -11 -10 -5 0 -7
5 -4 10 3 6 8 10 11 10 2 0 4 -4 4 -10z m60 0 c0 -5 -4 -10 -10 -10 -5 0 -10
5 -10 10 0 6 5 10 10 10 6 0 10 -4 10 -10z m3760 -36 c0 -19 -5 -24 -25 -24
-25 0 -25 0 -10 30 18 34 35 31 35 -6z m-80 -18 c0 -16 -5 -23 -15 -22 -26 4
-30 17 -11 32 26 18 26 18 26 -10z m-3693 -18 c-3 -8 -6 -5 -6 6 -1 11 2 17 5
13 3 -3 4 -12 1 -19z m-67 8 c0 -3 -4 -8 -10 -11 -5 -3 -10 -1 -10 4 0 6 5 11
10 11 6 0 10 -2 10 -4z m120 -6 c0 -5 -9 -10 -20 -10 -11 0 -20 5 -20 10 0 6
9 10 20 10 11 0 20 -4 20 -10z m3780 -62 c0 -4 -9 -8 -20 -8 -20 0 -28 29 -13
44 7 7 33 -21 33 -36z m1093 -26 c-13 -8 -31 -102 -20 -102 3 0 20 23 37 51
24 36 35 47 41 37 13 -20 11 -25 -27 -68 -67 -74 -100 -45 -89 77 l8 75 31
-31 c22 -23 28 -34 19 -39z m-1153 49 c0 -13 -23 -19 -112 -26 -75 -7 -77 -7
-71 14 5 19 12 21 94 21 49 0 89 -4 89 -9z m-216 -15 c-21 -15 -30 -14 -19 3
3 6 14 11 23 11 13 0 13 -2 -4 -14z m-3564 -12 c0 -8 -5 -12 -10 -9 -6 4 -8
11 -5 16 9 14 15 11 15 -7z m50 6 c0 -5 -7 -10 -16 -10 -8 0 -12 5 -9 10 3 6
10 10 16 10 5 0 9 -4 9 -10z m3340 -16 c48 4 70 -1 70 -15 0 -5 -43 -9 -96 -9
-71 0 -95 3 -92 12 6 16 50 27 63 17 6 -4 31 -6 55 -5z m326 -24 c-17 -6 -36
-5 -45 0 -11 7 -3 9 29 9 42 -1 43 -1 16 -9z m-3666 -24 c0 -11 -19 -15 -25
-6 -3 5 1 10 9 10 9 0 16 -2 16 -4z m3290 -16 c0 -12 -8 -12 -35 0 -18 8 -17
9 8 9 15 1 27 -3 27 -9z m468 -129 c-2 -39 -8 -66 -16 -69 -9 -3 -12 22 -12
96 0 54 3 102 7 106 13 12 24 -65 21 -133z m-78 110 c5 -11 10 -56 10 -100 0
-80 0 -81 -25 -81 -14 0 -28 0 -32 0 -9 0 -17 165 -9 185 8 21 43 18 56 -4z
m-3710 -21 c0 -5 -5 -10 -11 -10 -5 0 -7 5 -4 10 3 6 8 10 11 10 2 0 4 -4 4
-10z m1095 -5 c93 -25 141 -50 200 -106 98 -92 164 -229 165 -337 l0 -53 -105
3 -105 3 -4 -25 c-3 -14 -10 -54 -16 -89 -27 -155 -129 -273 -270 -315 -77
-23 -84 -19 -17 8 76 32 106 52 117 80 5 13 16 26 24 29 9 4 16 11 16 17 0 7
-13 1 -29 -12 -17 -13 -28 -28 -26 -34 2 -7 -4 -10 -15 -7 -10 3 -21 -1 -25
-8 -6 -8 -4 -10 5 -4 9 5 11 4 6 -3 -4 -7 -14 -12 -22 -12 -8 0 -14 -5 -14
-11 0 -5 -4 -8 -9 -4 -5 3 -24 -4 -43 -14 -48 -29 -124 -43 -185 -35 -29 3
-53 9 -53 13 0 3 35 6 79 7 68 0 88 5 152 36 100 47 156 96 206 180 52 87 70
175 55 272 -39 246 -254 379 -494 306 -40 -12 -85 -28 -100 -36 -44 -23 -32
-7 15 21 24 14 53 25 63 25 11 0 25 5 32 12 7 7 51 12 119 12 103 1 112 -1
175 -32 37 -18 75 -43 85 -56 10 -12 37 -44 61 -71 37 -42 41 -45 32 -19 -16
42 -74 113 -115 141 -87 59 -182 79 -297 63 -143 -21 -229 -74 -307 -191 -48
-71 -54 -67 -12 7 35 60 140 159 209 197 27 15 73 33 103 41 74 20 268 20 344
1z m2278 -51 c12 -92 5 -158 -15 -162 -16 -3 -18 7 -18 113 0 89 3 116 13 113
6 -3 15 -31 20 -64z m-3473 46 c0 -5 -5 -10 -11 -10 -5 0 -7 5 -4 10 3 6 8 10
11 10 2 0 4 -4 4 -10z m5685 0 c7 -12 -38 -12 -75 0 -20 7 -16 8 22 9 26 1 50
-3 53 -9z m-2308 -152 c-2 -29 -3 -6 -3 52 0 58 1 81 3 53 2 -29 2 -77 0 -105z
m130 0 c-2 -29 -3 -6 -3 52 0 58 1 81 3 53 2 -29 2 -77 0 -105z m-3467 92 c0
-5 -4 -10 -9 -10 -6 0 -13 5 -16 10 -3 6 1 10 9 10 9 0 16 -4 16 -10z m17 -12
c-3 -8 -6 -5 -6 6 -1 11 2 17 5 13 3 -3 4 -12 1 -19z m63 12 c0 -5 -4 -10 -10
-10 -5 0 -10 5 -10 10 0 6 5 10 10 10 6 0 10 -4 10 -10z m3289 -94 c1 -70 -5
-54 -12 29 -3 43 -2 60 3 45 4 -14 8 -47 9 -74z m-2346 11 c67 -34 148 -118
165 -174 14 -48 2 -205 -21 -269 -44 -122 -143 -210 -279 -249 -73 -21 -145
-8 -227 40 -123 73 -182 171 -189 317 -4 80 -2 92 25 150 47 98 106 150 211
187 75 26 99 30 173 28 69 -2 96 -8 142 -30z m-975 6 c-10 -2 -26 -2 -35 0
-10 3 -2 5 17 5 19 0 27 -2 18 -5z m1491 -98 c45 -61 64 -102 50 -110 -5 -4
-9 -3 -8 2 3 18 -1 36 -7 30 -8 -8 -31 21 -84 108 -35 58 -38 66 -16 45 15
-13 44 -47 65 -75z m-1564 46 c-3 -6 -11 -8 -17 -5 -6 4 -5 9 3 15 16 10 23 4
14 -10z m3789 13 c9 -3 16 -15 16 -25 0 -27 -56 -27 -63 0 -7 30 10 39 47 25z
m-3738 -31 c-10 -10 -19 5 -10 18 6 11 8 11 12 0 2 -7 1 -15 -2 -18z m3657 7
c-3 -11 -7 -20 -9 -20 -2 0 -4 9 -4 20 0 11 4 20 9 20 5 0 7 -9 4 -20z m151
-21 c-10 -16 -24 -9 -24 12 0 18 2 19 15 9 8 -7 12 -16 9 -21z m-467 -41 c-3
-7 -5 -2 -5 12 0 14 2 19 5 13 2 -7 2 -19 0 -25z m71 15 c-5 -26 -38 -29 -38
-4 0 15 6 21 21 21 14 0 19 -5 17 -17z m29 -5 c-3 -8 -6 -5 -6 6 -1 11 2 17 5
13 3 -3 4 -12 1 -19z m-3472 -8 c-3 -5 -10 -10 -16 -10 -5 0 -9 5 -9 10 0 6 7
10 16 10 8 0 12 -4 9 -10z m415 -18 c0 -5 -6 -17 -14 -28 -14 -18 -15 -18 -22
0 -4 11 -2 21 7 27 18 11 29 11 29 1z m-81 -38 c3 -16 1 -17 -13 -5 -19 16
-21 34 -3 29 6 -3 14 -13 16 -24z m-59 -10 c0 -9 -5 -14 -12 -12 -18 6 -21 28
-4 28 9 0 16 -7 16 -16z m-60 -15 c0 -6 -4 -7 -10 -4 -5 3 -10 11 -10 16 0 6
5 7 10 4 6 -3 10 -11 10 -16z m3570 -24 c0 -53 -16 -61 -22 -11 -4 39 0 56 13
56 5 0 9 -20 9 -45z m-3627 15 c-6 -22 -18 -26 -29 -9 -3 6 0 15 7 20 22 14
28 11 22 -11z m3264 -57 c-2 -16 -4 -5 -4 22 0 28 2 40 4 28 2 -13 2 -35 0
-50z m-3318 35 c-9 -16 -14 -19 -17 -9 -2 7 2 17 9 22 20 13 21 11 8 -13z
m-52 -35 c-3 -10 -5 -4 -5 12 0 17 2 24 5 18 2 -7 2 -21 0 -30z m-47 6 c0 -6
-4 -7 -10 -4 -5 3 -10 11 -10 16 0 6 5 7 10 4 6 -3 10 -11 10 -16z m1617 -1
c-3 -8 -6 -5 -6 6 -1 11 2 17 5 13 3 -3 4 -12 1 -19z m-1663 -4 c4 -10 1 -14
-6 -12 -15 5 -23 28 -10 28 5 0 13 -7 16 -16z m473 -76 c-2 -13 -4 -5 -4 17
-1 22 1 32 4 23 2 -10 2 -28 0 -40z m1150 -15 c-3 -10 -5 -2 -5 17 0 19 2 27
5 18 2 -10 2 -26 0 -35z m-1777 6 c0 -5 -4 -9 -10 -9 -5 0 -10 7 -10 16 0 8 5
12 10 9 6 -3 10 -10 10 -16z m110 11 c0 -5 -4 -10 -10 -10 -5 0 -10 5 -10 10
0 6 5 10 10 10 6 0 10 -4 10 -10z m-162 -49 c3 -8 -1 -12 -9 -9 -7 2 -15 10
-17 17 -3 8 1 12 9 9 7 -2 15 -10 17 -17z m616 -3 c2 -13 9 -52 15 -88 23
-140 127 -284 259 -360 34 -19 62 -38 62 -42 0 -5 -30 -8 -67 -7 -38 0 -142
-5 -233 -11 -226 -17 -529 -4 -557 23 -9 10 138 392 158 409 35 29 255 94 331
97 21 1 29 -4 32 -21z m124 -161 c16 -39 107 -132 143 -147 16 -7 28 -15 25
-17 -2 -3 -34 12 -70 32 -79 44 -106 85 -136 200 -27 107 -24 139 4 40 13 -44
28 -93 34 -108z m3908 133 c51 -22 116 -85 144 -140 40 -79 36 -182 -11 -240
-16 -19 -18 -20 -10 -4 16 33 3 201 -19 244 -24 47 -78 95 -126 110 -36 12
-143 9 -191 -6 -19 -5 -23 -2 -23 14 0 49 142 63 236 22z m-3976 -36 c5 -27
12 -60 15 -74 l6 -25 -15 26 c-15 25 -35 139 -22 128 3 -3 10 -28 16 -55z
m-720 36 c0 -5 -4 -10 -10 -10 -5 0 -10 5 -10 10 0 6 5 10 10 10 6 0 10 -4 10
-10z m4395 -21 c0 -8 -12 -15 -27 -17 -31 -4 -37 12 -10 27 21 13 37 9 37 -10z
m-4435 1 c0 -5 -2 -10 -4 -10 -3 0 -8 5 -11 10 -3 6 -1 10 4 10 6 0 11 -4 11
-10z m-30 -26 c0 -8 -5 -12 -10 -9 -6 4 -8 11 -5 16 9 14 15 11 15 -7z m8144
-43 c-4 -39 -2 -66 6 -82 l13 -24 -24 20 c-13 11 -26 21 -28 22 -5 3 30 123
36 123 2 0 1 -26 -3 -59z m-3466 42 c-16 -2 -28 -9 -28 -15 0 -5 -7 -8 -15 -4
-8 3 -19 -2 -24 -12 -8 -13 -12 -14 -22 -5 -10 10 -5 16 22 27 19 9 48 15 64
14 30 -1 30 -1 3 -5z m-171 -39 c41 -20 56 -34 73 -69 19 -39 20 -54 14 -147
-7 -111 -19 -144 -68 -196 -103 -110 -267 -90 -334 40 -56 109 -36 245 47 328
82 82 161 95 268 44z m-4542 -4 c3 -5 2 -10 -4 -10 -5 0 -13 5 -16 10 -3 6 -2
10 4 10 5 0 13 -4 16 -10z m4818 -29 c44 -49 76 -150 58 -180 -5 -8 -10 1 -14
26 -10 62 -63 158 -94 172 l-28 12 25 -22 c20 -17 21 -20 5 -14 -11 4 -31 10
-44 13 l-24 5 24 13 c38 21 54 17 92 -25z m231 -86 c55 -115 72 -303 60 -637
-6 -142 -12 -259 -15 -262 -2 -3 -22 -1 -44 4 -22 5 -187 12 -367 16 -181 4
-328 9 -328 11 0 4 126 145 228 253 84 90 101 113 116 157 10 31 26 46 87 83
93 57 159 123 196 197 24 50 28 69 27 140 -1 58 -7 91 -18 110 -14 23 -12 22
13 -6 17 -19 37 -49 45 -66z m-1499 54 c115 -43 175 -129 183 -262 6 -103 -16
-181 -76 -272 -60 -90 -110 -118 -215 -119 -56 0 -81 4 -112 21 -56 30 -112
88 -143 147 -24 46 -27 62 -27 156 0 97 2 110 30 165 38 77 102 138 168 164
68 26 123 26 192 0z m1224 -3 c9 -8 20 -15 25 -15 16 0 45 -83 45 -129 1 -62
-16 -49 -44 32 -22 63 -62 123 -73 111 -3 -3 4 -15 16 -28 28 -29 52 -100 51
-146 l-1 -36 -9 35 c-13 48 -50 141 -66 165 -11 19 -10 21 14 23 14 1 33 -4
42 -12z m-88 -53 c24 -50 23 -128 -3 -177 -13 -24 -13 -20 -10 43 3 53 -1 82
-17 125 -25 67 -25 67 -6 60 8 -3 24 -26 36 -51z m-912 9 l35 -16 -33 -9 c-27
-7 -39 -4 -67 15 -19 13 -34 27 -34 31 0 11 56 -1 99 -21z m400 -17 c3 -15 0
-17 -10 -8 -8 6 -30 16 -49 22 l-35 10 45 -2 c36 -2 46 -6 49 -22z m-113 0
c-3 -9 -1 -15 7 -14 6 1 27 1 46 0 31 -1 33 -2 17 -14 -16 -12 -16 -15 -2 -42
9 -17 16 -46 15 -65 -1 -32 -2 -30 -13 17 -16 63 -27 79 -72 95 -38 13 -43 24
-16 31 9 3 19 5 21 6 2 0 0 -6 -3 -14z m4148 0 c3 -9 10 -57 16 -108 11 -89
19 -140 96 -572 42 -238 51 -329 35 -339 -7 -5 -11 2 -11 18 0 39 -47 319 -89
536 -21 107 -44 235 -50 284 -7 48 -21 111 -31 140 -11 28 -20 52 -20 54 0 10
49 -1 54 -13z m-4324 -35 c18 0 82 -64 101 -101 12 -25 18 -55 17 -86 l-2 -48
-3 48 c-2 26 -8 47 -14 47 -5 0 -9 6 -9 14 0 20 -46 73 -95 109 -22 16 -32 27
-22 23 10 -3 23 -6 27 -6z m146 -15 c37 -29 64 -99 45 -118 -8 -8 -11 -4 -12
14 -1 13 -6 -5 -11 -40 -12 -84 -24 -105 -25 -43 -1 60 -29 127 -71 169 -18
17 -32 34 -32 37 0 18 76 3 106 -19z m-178 -15 c61 -37 102 -167 68 -212 -19
-25 -26 -22 -26 11 0 16 -3 31 -8 33 -9 4 -61 108 -54 108 3 0 17 -10 31 -22
l25 -23 -18 30 c-28 45 -59 76 -65 66 -4 -5 -17 -1 -30 10 l-23 19 33 0 c19 0
49 -9 67 -20z m-38 -109 c5 -20 6 -37 1 -41 -5 -3 -11 -19 -14 -35 -4 -24 -4
-22 -4 10 0 59 -12 107 -37 135 -16 19 -13 18 12 -4 17 -17 36 -46 42 -65z
m841 -49 c-5 -10 -18 -25 -27 -33 -11 -9 -9 -2 6 19 26 35 36 42 21 14z m-451
-36 c0 -25 70 -104 120 -135 45 -27 49 -34 40 -51 -15 -28 -125 -145 -171
-181 l-38 -30 -33 38 c-18 21 -46 51 -61 67 l-29 29 24 18 c18 15 21 22 12 35
-20 33 -41 40 -63 20 -12 -11 -21 -24 -21 -31 0 -7 26 -43 58 -81 31 -38 68
-83 82 -100 42 -53 130 -158 151 -181 12 -13 19 -28 17 -35 -3 -8 -10 -6 -20
7 -9 11 -56 70 -104 130 -48 61 -104 128 -123 150 -20 22 -52 64 -71 94 l-34
54 24 16 c62 41 210 163 210 173 0 4 7 8 15 8 8 0 15 -6 15 -14z m-2136 -67
c8 -51 3 -59 -32 -50 -22 7 -27 13 -25 37 2 26 25 54 44 54 3 0 9 -18 13 -41z
m-1808 16 c-21 -16 -32 -13 -21 4 3 6 14 11 23 11 15 -1 15 -2 -2 -15z m664 0
c0 -8 -4 -15 -10 -15 -5 0 -10 7 -10 15 0 8 5 15 10 15 6 0 10 -7 10 -15z
m-590 -2 c0 -5 -4 -15 -10 -23 -11 -18 -25 -7 -17 15 6 15 27 21 27 8z m480
-9 c0 -8 -4 -12 -10 -9 -5 3 -10 10 -10 16 0 5 5 9 10 9 6 0 10 -7 10 -16z
m-63 -26 c-3 -7 -5 -2 -5 12 0 14 2 19 5 13 2 -7 2 -19 0 -25z m3154 -4 c-5
-16 -10 -21 -10 -12 -1 18 10 51 15 45 2 -1 -1 -16 -5 -33z m-3481 16 c0 -5
-4 -10 -10 -10 -5 0 -10 5 -10 10 0 6 5 10 10 10 6 0 10 -4 10 -10z m64 -5
c-6 -16 -24 -21 -24 -7 0 11 11 22 21 22 5 0 6 -7 3 -15z m216 -6 c0 -5 -4 -9
-10 -9 -5 0 -10 7 -10 16 0 8 5 12 10 9 6 -3 10 -10 10 -16z m-95 1 c3 -5 1
-10 -4 -10 -6 0 -11 5 -11 10 0 6 2 10 4 10 3 0 8 -4 11 -10z m260 0 c3 -5 1
-10 -4 -10 -6 0 -11 5 -11 10 0 6 2 10 4 10 3 0 8 -4 11 -10z m-55 -15 c0 -8
-2 -15 -4 -15 -2 0 -6 7 -10 15 -3 8 -1 15 4 15 6 0 10 -7 10 -15z m-580 1 c0
-3 -4 -8 -10 -11 -5 -3 -10 -1 -10 4 0 6 5 11 10 11 6 0 10 -2 10 -4z m51 -33
c-10 -17 -10 -16 -11 3 0 23 13 41 18 25 2 -6 -1 -18 -7 -28z m1665 -73 c71
-6 156 -15 189 -21 91 -16 226 -56 241 -71 9 -8 20 -65 29 -143 9 -72 18 -138
21 -147 5 -18 -20 -26 -30 -10 -3 5 -12 69 -21 143 -8 73 -21 139 -28 145 -31
29 -380 93 -511 94 -23 0 -26 -3 -17 -14 6 -8 25 -19 41 -26 17 -7 30 -17 30
-22 0 -5 -4 -6 -10 -3 -6 3 -10 -4 -10 -17 0 -13 -6 -30 -12 -37 -11 -11 -10
-13 3 -8 9 3 16 0 16 -9 0 -7 -4 -11 -8 -8 -4 2 -9 -4 -12 -13 -2 -10 -7 5
-12 32 -9 58 -34 91 -84 106 -52 16 -398 23 -500 11 -47 -6 -126 -14 -176 -19
l-90 -7 70 -7 c39 -4 120 -3 180 3 147 13 400 13 467 -1 90 -19 98 -34 116
-213 12 -114 12 -153 4 -156 -7 -2 -10 -8 -6 -13 3 -5 1 -9 -4 -9 -5 0 -12 9
-15 20 -13 49 -133 53 -171 6 l-21 -27 -270 -1 -270 -2 -28 26 c-30 28 -85 43
-120 33 -12 -4 -34 -21 -49 -38 l-26 -32 -7 27 c-4 14 -2 34 3 45 5 10 13 80
17 156 6 111 11 139 24 147 22 13 4 12 -34 -1 l-32 -12 -7 -107 c-7 -121 -23
-219 -38 -237 -13 -16 -75 -17 -80 -2 -4 13 21 297 30 341 2 7 132 50 192 63
19 4 102 15 185 25 176 21 637 26 841 10z m1745 -13 c-10 -9 -11 -8 -5 6 3 10
9 15 12 12 3 -3 0 -11 -7 -18z m959 17 c0 -3 -28 -36 -63 -72 -35 -37 -108
-116 -162 -177 -55 -60 -104 -112 -110 -114 -14 -6 38 53 184 208 69 74 130
140 134 147 8 15 17 18 17 8z m-610 -14 c0 -5 -7 -10 -16 -10 -8 0 -12 5 -9
10 3 6 10 10 16 10 5 0 9 -4 9 -10z m0 -165 c60 -64 165 -192 184 -222 4 -8 2
-13 -7 -13 -21 0 -328 373 -327 397 1 4 20 -14 43 -42 23 -27 71 -81 107 -120z
m-3770 125 c36 -5 157 -10 270 -10 184 -1 202 -2 179 -15 -35 -19 -36 -23 -50
-172 -6 -70 -14 -146 -18 -168 l-7 -40 -182 -6 c-217 -6 -223 -9 -232 -107
l-5 -57 -95 3 c-85 4 -98 2 -122 -18 -23 -17 -28 -29 -28 -65 0 -49 -19 -75
-56 -75 -29 0 -29 2 -5 65 96 248 139 370 183 516 51 166 53 169 78 164 14 -2
54 -9 90 -15z m3591 -108 c64 -70 163 -178 220 -240 57 -62 113 -129 124 -148
11 -19 29 -37 40 -39 11 -3 63 -1 115 4 69 6 98 5 108 -4 10 -9 -29 -11 -165
-10 -188 2 -240 10 -289 47 -28 21 -145 141 -270 277 -27 30 -68 63 -91 73
-24 10 -43 21 -43 23 0 2 27 29 60 61 33 31 60 63 60 71 0 7 3 13 8 12 4 0 59
-58 123 -127z m41 72 c18 -25 33 -49 33 -53 0 -4 22 -30 48 -58 27 -28 69 -80
94 -115 25 -34 54 -71 65 -80 15 -14 17 -18 5 -18 -8 0 -21 8 -28 19 -49 66
-145 178 -218 254 -46 48 -80 87 -75 87 6 0 25 -16 44 -35 42 -43 51 -38 15 9
-15 20 -25 36 -22 36 3 0 21 -21 39 -46z m1248 -69 c0 -16 -6 -25 -16 -25 -11
0 -14 5 -10 16 3 9 6 20 6 25 0 5 5 9 10 9 6 0 10 -11 10 -25z m1347 -37 c-3
-8 -6 -5 -6 6 -1 11 2 17 5 13 3 -3 4 -12 1 -19z m-2995 -25 c22 -20 22 -31 2
-71 -17 -36 -21 -37 -47 -17 -17 12 -18 18 -7 52 20 61 23 63 52 36z m143 -3
c3 -5 -1 -10 -9 -10 -26 0 -39 -38 -26 -71 15 -35 64 -79 90 -79 25 0 43 26
37 55 -4 25 -4 25 14 9 31 -28 22 -71 -24 -121 -28 -32 -127 -33 -155 -3 -32
35 -46 92 -33 133 22 64 87 118 106 87z m1503 -124 c2 -76 0 -97 -10 -94 -9 3
-14 34 -16 102 -2 76 0 97 10 94 9 -3 14 -34 16 -102z m-3208 64 c0 -10 -6
-20 -13 -23 -10 -4 -12 3 -9 24 5 31 22 30 22 -1z m1744 -36 c4 -10 1 -14 -6
-12 -15 5 -23 28 -10 28 5 0 13 -7 16 -16z m-1807 -56 c-2 -13 -4 -3 -4 22 0
25 2 35 4 23 2 -13 2 -33 0 -45z m101 16 c29 -59 22 -84 -22 -84 -22 0 -33 5
-33 15 0 8 7 15 14 15 8 0 11 5 8 10 -4 6 -11 8 -16 5 -11 -7 -12 10 -3 54 9
44 26 39 52 -15z m-2108 26 c0 -5 -4 -10 -10 -10 -5 0 -10 5 -10 10 0 6 5 10
10 10 6 0 10 -4 10 -10z m3580 -20 c9 -17 5 -24 -22 -49 l-33 -30 -3 26 c-4
31 16 73 34 73 7 0 18 -9 24 -20z m-3580 -30 c0 -5 -7 -7 -15 -4 -8 4 -15 8
-15 10 0 2 7 4 15 4 8 0 15 -4 15 -10z m3980 -66 c0 -2 -7 -4 -15 -4 -25 0
-90 -45 -110 -76 -18 -28 -18 -28 0 -14 10 8 21 14 24 13 3 -2 6 1 6 7 0 20
42 39 85 40 41 0 51 -5 85 -40 44 -45 42 -49 -12 -20 -72 39 -112 23 -170 -67
-27 -42 -38 -53 -51 -47 -9 4 -32 7 -50 6 -18 -1 -31 2 -28 7 3 5 -11 3 -32
-4 -37 -12 -295 -20 -312 -10 -5 3 11 32 35 64 65 85 67 86 104 55 17 -14 31
-34 31 -45 0 -10 6 -19 14 -19 15 0 106 96 106 111 0 5 38 9 83 9 92 0 99 4
132 69 l17 33 29 -31 c16 -18 29 -34 29 -37z m-310 -19 c0 -5 -12 -23 -26 -40
l-26 -30 22 33 22 33 -26 42 -27 42 31 -35 c16 -19 30 -39 30 -45z m-48 25
c16 -28 16 -30 -3 -55 -11 -14 -28 -25 -38 -25 -19 0 -58 36 -49 45 3 3 13 -4
23 -15 10 -11 23 -20 30 -20 14 0 34 40 28 58 -8 22 -23 13 -23 -14 0 -28 -17
-29 -34 -1 -8 12 -5 21 8 36 26 28 38 26 58 -9z m1081 -7 c-8 -3 6 -24 37 -55
28 -28 50 -53 50 -55 0 -2 -10 -3 -22 -1 -15 2 -32 19 -48 48 -21 39 -25 42
-28 22 -2 -12 5 -39 15 -60 15 -32 23 -37 56 -40 24 -2 37 -8 34 -15 -2 -8
-27 -11 -77 -8 -69 3 -74 5 -109 41 -35 37 -37 38 -133 45 -54 4 -103 5 -111
2 -14 -5 -38 12 -76 56 l-24 27 224 -1 c123 0 218 -3 212 -6z m195 -12 c51
-26 74 -54 75 -93 1 -18 9 -36 17 -40 8 -4 -10 -7 -41 -7 -31 -1 -71 -4 -88
-7 -20 -4 -31 -3 -31 5 0 7 22 11 59 11 71 0 83 11 67 60 -14 44 -54 67 -136
78 l-65 10 53 1 c34 1 66 -6 90 -18z m220 -26 c27 -24 55 -59 62 -77 7 -18 20
-41 28 -51 8 -9 12 -20 8 -24 -4 -5 -12 -1 -17 8 -5 9 -23 19 -41 23 -37 7
-152 92 -143 106 7 11 -4 18 -68 41 l-52 18 86 1 87 0 50 -45z m50 29 c12 -8
37 -43 55 -77 42 -81 40 -77 29 -77 -6 0 -16 16 -22 36 -7 20 -34 58 -59 85
-46 48 -48 65 -3 33z m-387 -25 c20 -14 29 -29 29 -47 l0 -27 -19 31 c-11 18
-30 39 -42 48 -13 9 -18 16 -10 16 7 0 26 -9 42 -21z m-4801 1 c0 -5 -2 -10
-4 -10 -3 0 -8 5 -11 10 -3 6 -1 10 4 10 6 0 11 -4 11 -10z m2620 -9 c157 -7
303 -15 325 -19 l40 -8 3 -123 c2 -96 0 -122 -10 -119 -9 3 -15 37 -18 111 -3
58 -8 108 -10 111 -6 5 -255 23 -267 19 -4 -2 -7 -55 -5 -118 3 -90 0 -115
-10 -115 -31 1 -36 17 -40 123 -3 98 -5 108 -23 112 -11 2 -105 7 -210 10
-104 4 -200 9 -212 12 -22 5 -22 4 -25 -123 l-3 -129 -493 -3 -493 -2 3 120 3
120 -43 0 c-40 0 -42 -1 -36 -25 3 -14 3 -68 -1 -120 l-7 -95 -184 0 -184 0
-1 103 c-1 56 -2 108 -3 116 -1 12 -25 14 -131 12 -71 -1 -133 -5 -138 -8 -5
-3 -7 -34 -3 -70 8 -73 -1 -143 -15 -121 -11 17 -11 189 -1 206 7 9 94 15 358
23 192 5 369 11 394 13 104 8 1177 -2 1440 -13z m2735 -56 c0 -53 -2 -60 -21
-63 -18 -3 -22 4 -28 44 -11 80 -9 86 22 82 26 -3 27 -5 27 -63z m-440 15 c0
-13 -7 -26 -15 -28 -13 -5 -13 -3 -1 11 11 14 11 20 0 34 -12 14 -12 16 1 11
8 -2 15 -15 15 -28z m-4935 -10 c0 -5 -2 -10 -4 -10 -3 0 -8 5 -11 10 -3 6 -1
10 4 10 6 0 11 -4 11 -10z m3655 -10 c-3 -5 -12 -10 -18 -10 -7 0 -6 4 3 10
19 12 23 12 15 0z m440 -27 c35 -24 53 -28 147 -34 61 -3 114 -11 122 -18 8
-7 23 -33 32 -58 22 -58 27 -274 6 -295 -8 -8 -37 -13 -75 -13 l-62 0 3 30 c2
17 4 37 5 45 1 8 -2 16 -8 18 -5 1 -11 -20 -13 -48 -3 -50 -3 -50 -38 -50 -36
0 -43 10 -20 29 31 26 58 113 54 171 -6 84 -34 129 -101 166 -31 16 -63 38
-70 49 -14 18 -37 14 -37 -8 0 -7 -9 -18 -21 -25 -11 -7 -18 -19 -15 -27 2 -7
-6 -21 -20 -30 -14 -9 -30 -27 -36 -41 -6 -13 -20 -24 -30 -24 -15 0 -18 -5
-13 -20 3 -10 7 -55 7 -100 1 -75 2 -80 23 -80 12 0 33 -12 48 -27 l26 -28
-47 1 c-26 1 -54 2 -63 3 -13 1 -17 20 -23 111 -4 61 -4 131 0 155 7 47 22 59
76 57 15 0 30 4 33 9 4 5 -5 9 -19 9 -34 0 -40 14 -20 47 38 62 85 70 149 26z
m421 15 c-44 -5 -83 -5 -88 0 -4 4 31 8 79 9 l88 0 -79 -9z m567 -35 c-7 -2
-19 -2 -25 0 -7 3 -2 5 12 5 14 0 19 -2 13 -5z m-506 -9 c-3 -3 -12 -4 -19 -1
-8 3 -5 6 6 6 11 1 17 -2 13 -5z m-475 -33 c105 -46 146 -159 93 -262 -22 -41
-100 -93 -123 -80 -16 10 -15 10 3 11 21 1 55 22 55 34 0 4 -25 4 -55 1 -53
-7 -55 -6 -65 20 -13 35 -13 161 1 187 16 29 70 49 107 39 22 -7 29 -6 26 2
-6 15 -74 47 -100 47 -16 0 -17 2 -4 10 19 12 11 13 62 -9z m851 12 c-7 -2
-19 -2 -25 0 -7 3 -2 5 12 5 14 0 19 -2 13 -5z m75 0 c-10 -2 -28 -2 -40 0
-13 2 -5 4 17 4 22 1 32 -1 23 -4z m96 -4 c-3 -5 -11 -9 -19 -9 -8 0 -16 4
-19 9 -3 5 5 9 19 9 14 0 22 -4 19 -9z m-484 -3 c0 -3 -4 -8 -10 -11 -5 -3
-10 -1 -10 4 0 6 5 11 10 11 6 0 10 -2 10 -4z m805 -6 c4 -6 -17 -9 -57 -8
-62 1 -62 1 -18 8 25 4 50 8 57 8 6 1 15 -2 18 -8z m-5135 -50 c0 -16 -4 -32
-10 -35 -6 -4 -10 6 -10 24 0 16 -4 33 -10 36 -20 12 -10 26 10 15 13 -7 20
-21 20 -40z m3110 40 c0 -5 -18 -10 -41 -10 -24 0 -38 4 -34 10 3 6 22 10 41
10 19 0 34 -4 34 -10z m-3196 -36 c-23 -30 -29 -33 -37 -19 -11 20 17 55 45
55 17 0 16 -4 -8 -36z m4749 10 l487 -6 -1 -27 c-1 -16 -3 -19 -6 -9 -5 21
-87 36 -106 19 -10 -8 -17 -7 -25 1 -9 9 -12 6 -13 -13 0 -23 -1 -23 -9 -3 -8
20 -13 20 -444 20 -403 -1 -436 0 -436 16 0 13 7 16 33 13 17 -3 251 -7 520
-11z m-1202 -11 c1 -17 2 -17 6 0 3 12 15 17 39 17 19 0 34 -3 34 -7 -1 -15
-51 -45 -66 -39 -12 5 -14 -17 -14 -134 0 -133 -1 -140 -20 -140 -19 0 -20 7
-20 160 0 153 1 160 20 160 12 0 20 -7 21 -17z m-3383 -21 c3 -18 -1 -22 -25
-21 -15 0 -22 3 -15 6 6 2 12 14 12 25 0 26 24 18 28 -10z m3318 12 c-3 -9 -6
-78 -6 -154 l0 -137 -195 1 c-192 1 -194 1 -205 24 -11 26 -12 108 -1 196 11
86 11 86 229 86 164 0 183 -2 178 -16z m4666 -197 c0 -121 -4 -202 -11 -214
-8 -13 -10 42 -11 207 0 158 3 221 11 213 6 -6 10 -81 11 -206z m-8457 193 c3
-5 2 -10 -4 -10 -5 0 -13 5 -16 10 -3 6 -2 10 4 10 5 0 13 -4 16 -10z m3385 1
c0 -5 -7 -14 -15 -21 -12 -10 -15 -37 -15 -120 l0 -108 -60 -4 c-57 -3 -63 -1
-90 27 -16 17 -34 43 -39 58 -12 31 -15 160 -4 170 10 10 223 8 223 -2z
m-3065 -41 c7 -21 0 -40 -16 -40 -5 0 -9 14 -9 30 0 34 15 40 25 10z m4975 10
c0 -5 -9 -10 -20 -10 -25 0 -26 -15 -2 -29 14 -9 14 -12 3 -20 -10 -6 -12 -26
-6 -89 4 -51 3 -82 -3 -86 -20 -12 -26 19 -27 131 l0 113 28 0 c15 0 27 -4 27
-10z m-5315 -10 c3 -5 2 -10 -4 -10 -5 0 -13 5 -16 10 -3 6 -2 10 4 10 5 0 13
-4 16 -10z m5572 -26 c-3 -3 -12 -4 -19 -1 -8 3 -5 6 6 6 11 1 17 -2 13 -5z
m-1483 -111 c4 -18 5 -33 1 -33 -11 0 -35 68 -35 98 0 44 14 48 21 5 3 -21 9
-53 13 -70z m-991 81 c20 -3 37 -11 37 -16 0 -7 -54 -9 -162 -4 -90 3 -224 7
-298 8 l-135 2 -2 -88 c-1 -49 -5 -92 -9 -95 -3 -3 -541 -7 -1195 -9 l-1188
-3 2 95 c1 52 6 98 10 103 19 18 2833 25 2940 7z m-484 -51 c-7 -10 -15 -20
-16 -22 -2 -2 -3 5 -3 17 0 14 6 22 16 22 14 0 15 -3 3 -17z m2721 7 c0 -5 -4
-10 -10 -10 -5 0 -10 5 -10 10 0 6 5 10 10 10 6 0 10 -4 10 -10z m-5590 -25
c-46 -18 -59 -18 -36 0 11 8 31 15 45 14 24 0 23 -2 -9 -14z m5590 -26 c0 -10
-4 -19 -10 -19 -5 0 -10 12 -10 26 0 14 4 23 10 19 6 -3 10 -15 10 -26z
m-5230 -49 l0 -70 -38 0 c-21 0 -41 3 -45 6 -3 3 10 26 28 50 18 24 36 53 40
64 11 35 15 22 15 -50z m-578 37 c-15 -16 -22 -36 -22 -65 0 -31 -4 -42 -15
-42 -18 0 -18 4 -6 48 6 20 6 32 0 32 -13 0 -11 24 3 38 7 7 23 12 37 12 l24
0 -21 -23z m151 -42 c5 -68 3 -76 -18 -68 -10 3 -15 20 -15 53 0 55 -10 66
-41 50 -24 -14 -32 -9 -23 13 4 12 17 15 49 14 l43 -2 5 -60z m139 -2 c12 -27
24 -51 26 -55 2 -5 -5 -8 -16 -8 -23 0 -47 56 -36 84 6 14 2 17 -17 14 -26 -3
-31 -29 -15 -78 7 -20 6 -22 -4 -13 -7 6 -15 32 -17 57 -6 46 -5 46 25 46 27
0 34 -6 54 -47z m3388 -20 c0 -13 -3 -13 -15 -3 -8 7 -15 19 -15 27 0 13 3 13
15 3 8 -7 15 -19 15 -27z m-3620 -34 c0 -5 -7 -6 -15 -3 -8 4 -15 13 -15 21 0
13 3 13 15 3 8 -7 15 -16 15 -21z m5720 22 c3 -1 -1 -5 -9 -10 -16 -10 -41 -4
-41 10 0 5 10 7 23 5 12 -3 24 -5 27 -5z m-1920 -128 l0 -78 -2155 -4 -2156
-4 3 74 3 74 700 5 c385 3 1354 6 2153 8 l1452 2 0 -77z m2737 68 c402 -3 735
-10 739 -14 5 -4 10 -37 12 -72 l4 -64 -1731 2 -1731 2 0 78 0 77 988 -1 c543
-1 1316 -4 1719 -8z m2351 -133 c17 -19 23 -40 27 -94 6 -68 11 -124 40 -449
8 -88 21 -263 30 -390 24 -357 35 -443 100 -790 65 -346 91 -700 81 -1105 -4
-151 -11 -322 -15 -380 -6 -77 -4 -118 5 -155 16 -59 17 -75 6 -75 -21 0 -39
144 -32 240 16 197 21 581 11 790 -14 285 -33 441 -86 705 -43 215 -68 405
-80 595 -35 566 -90 1057 -124 1115 -18 31 -18 34 -3 26 9 -5 27 -20 40 -33z
m-5088 -158 l0 -120 -2155 0 -2155 0 0 115 0 115 743 3 c408 1 1378 3 2155 5
l1412 2 0 -120z m3484 109 c2 -2 7 -55 11 -116 l7 -113 -1736 0 -1736 0 0 121
0 121 1725 -4 c949 -3 1727 -7 1729 -9z m-354 -359 l0 -90 -102 2 -103 2 93 3
92 4 0 78 c0 68 4 91 17 91 2 0 3 -40 3 -90z m-6337 -77 c-35 -2 -91 -2 -125
0 -35 2 -7 3 62 3 69 0 97 -1 63 -3z m1360 0 c-7 -2 -19 -2 -25 0 -7 3 -2 5
12 5 14 0 19 -2 13 -5z m250 0 c-7 -2 -19 -2 -25 0 -7 3 -2 5 12 5 14 0 19 -2
13 -5z m270 0 c-13 -2 -33 -2 -45 0 -13 2 -3 4 22 4 25 0 35 -2 23 -4z m2075
0 c-15 -2 -42 -2 -60 0 -18 2 -6 4 27 4 33 0 48 -2 33 -4z m1125 -10 c-13 -2
-33 -2 -45 0 -13 2 -3 4 22 4 25 0 35 -2 23 -4z m340 0 c-13 -2 -33 -2 -45 0
-13 2 -3 4 22 4 25 0 35 -2 23 -4z m595 0 c-64 -2 -172 -2 -240 0 -68 1 -15 3
117 3 132 0 187 -2 123 -3z m-4663 -1180 c0 -628 -3 -1145 -8 -1149 -4 -4
-269 -18 -590 -30 -320 -13 -611 -25 -647 -26 l-65 -3 -3 1178 -2 1177 657 -2
658 -3 0 -1142z m1230 17 l0 -1125 -255 -12 c-140 -6 -290 -12 -332 -12 l-78
-1 0 1133 c0 624 3 1137 7 1140 4 4 153 6 332 5 l326 -3 0 -1125z m2840 -70
l0 -1185 -95 1 c-52 1 -239 8 -415 18 -176 9 -439 21 -585 27 -146 5 -319 13
-385 17 l-120 7 -3 1153 -2 1152 802 -2 803 -3 0 -1185z m635 -359 l0 -1540
-42 -6 c-24 -3 -78 -6 -121 -8 l-79 -2 -5 1481 -6 1481 69 6 c38 4 93 7 121 7
l53 0 -7 60 c-4 42 -2 60 6 60 8 0 11 -392 11 -1539z m1494 1442 c3 -21 6
-110 5 -198 0 -126 -3 -155 -11 -135 -15 32 -24 370 -10 370 5 0 12 -17 16
-37z m-5664 -1068 l0 -1095 -122 0 -123 0 0 1075 -1 1075 114 0 c105 0 114 1
119 20 3 11 7 20 9 20 2 0 4 -493 4 -1095z m1377 1063 c-3 -7 -5 -2 -5 12 0
14 2 19 5 13 2 -7 2 -19 0 -25z m-3260 -1093 c3 -598 2 -1097 -1 -1111 -6 -21
-12 -24 -56 -24 -43 0 -50 -3 -55 -23 -4 -13 -5 -114 -3 -225 3 -224 2 -222
69 -222 34 0 37 -2 43 -37 8 -52 7 -155 -2 -170 -8 -13 -307 -43 -362 -37 -19
3 -53 7 -75 10 l-40 4 3 1441 c2 1359 3 1440 20 1445 9 3 25 10 35 15 11 6 17
6 17 -1 0 -5 3 -9 8 -9 4 1 13 1 20 0 9 -1 12 -273 13 -1323 1 -728 5 -1368 8
-1423 4 -55 8 543 9 1329 1 786 5 1432 8 1435 2 3 73 7 157 9 84 2 157 5 162
6 6 2 11 2 13 0 2 -1 6 -491 9 -1089z m3783 2 l0 -1094 -37 3 c-21 1 -66 2
-100 3 l-63 1 0 1083 0 1082 90 -5 c66 -4 91 -2 95 8 2 6 7 12 10 12 3 0 5
-492 5 -1093z m-4290 1071 c0 -7 1 -665 3 -1461 l2 -1448 -30 7 c-16 3 -32 8
-35 11 -6 6 -7 2893 -1 2899 10 10 61 3 61 -8z m3160 -8 c13 -8 15 -72 18
-458 l3 -449 43 0 43 -1 7 187 c4 103 4 200 0 215 l-7 28 -19 -31 c-30 -47
-48 -40 -48 18 0 28 5 53 10 56 6 3 10 47 10 96 0 70 -3 91 -15 95 -16 7 -19
32 -9 83 5 25 12 31 33 32 l26 1 -25 7 c-21 6 -25 13 -24 41 3 58 6 67 13 30
5 -30 10 -34 36 -35 28 0 30 3 35 45 l5 44 55 -3 c30 -1 56 -3 56 -4 1 -1 4
-697 6 -1545 l4 -1544 -100 7 c-56 4 -121 10 -146 14 l-45 6 0 1520 c0 836 1
1528 4 1538 4 19 10 21 31 7z m337 -6 c4 -11 8 -12 13 -4 5 8 50 12 136 13
l129 2 0 -1540 0 -1540 -165 -12 c-90 -6 -168 -9 -172 -7 -5 3 -8 695 -8 1539
0 1381 2 1535 16 1549 20 20 43 20 51 0z m2793 -1481 l0 -1486 -112 6 c-62 4
-134 7 -160 7 l-48 0 0 60 c0 37 5 64 13 72 8 7 12 22 11 33 -2 12 1 10 8 -8
7 -15 15 -27 20 -27 7 0 33 42 30 48 -1 1 -2 48 -1 105 0 56 3 96 6 89 2 -6 9
-10 14 -6 5 3 9 1 9 -5 0 -5 -5 -11 -10 -13 -7 -2 -8 -36 -4 -101 7 -95 8 -97
32 -97 l25 0 -6 108 c-12 199 -19 263 -31 259 -7 -3 -10 -25 -8 -61 3 -45 0
-56 -12 -56 -14 0 -16 21 -16 153 0 144 -11 227 -29 227 -13 0 -21 -27 -15
-45 5 -11 -1 -15 -20 -15 l-26 0 0 979 c0 538 3 993 6 1010 6 29 8 30 20 14 8
-11 13 -45 14 -84 l0 -65 50 0 49 0 7 52 c3 29 3 57 0 63 -4 5 3 36 14 68 11
31 20 71 21 88 1 41 7 22 17 -50 l8 -60 8 113 8 112 54 0 54 0 0 -1487z m-289
1445 c0 -18 2 -43 3 -55 1 -12 -1 -20 -6 -17 -4 3 -8 -7 -9 -23 0 -15 -4 -37
-9 -48 -6 -13 -9 14 -9 78 -1 80 2 97 14 97 10 0 15 -11 16 -32z m2142 -195
c130 -477 142 -523 162 -618 31 -152 118 -852 149 -1213 12 -133 11 -163 -2
-232 -15 -76 -15 -80 8 -146 26 -77 23 -129 -10 -236 -25 -80 -25 -99 1 -132
l20 -26 -62 -70 c-34 -39 -65 -70 -70 -70 -9 0 -12 10 -34 125 l-18 90 30 32
c39 42 43 58 26 118 -25 94 -26 114 -8 171 16 52 16 58 0 122 -14 54 -18 124
-21 367 -3 321 -7 397 -30 600 -14 128 -25 196 -84 524 -17 90 -30 174 -30
187 0 12 -5 35 -12 51 -7 15 -12 60 -13 100 0 60 -4 75 -22 95 -21 22 -23 34
-23 141 0 64 4 117 8 117 5 0 21 -44 35 -97z m-2096 -110 c-2 -16 -4 -3 -4 27
0 30 2 43 4 28 2 -16 2 -40 0 -55z m2063 -120 c0 -16 -9 -41 -19 -58 -18 -30
-18 -30 6 -56 18 -20 27 -47 38 -115 8 -49 23 -143 35 -209 45 -256 60 -350
75 -478 18 -157 34 -490 35 -707 0 -85 5 -184 11 -220 7 -36 11 -76 10 -89 -1
-27 -42 -144 -48 -138 -2 3 1 35 7 72 7 47 8 184 0 468 -12 501 -30 676 -99
1003 -16 77 -37 188 -47 248 -12 74 -24 118 -40 142 -21 31 -22 36 -9 61 21
39 18 93 -5 128 -31 47 -23 54 15 13 23 -24 35 -48 35 -65z m-4883 -175 c-3
-8 -6 -5 -6 6 -1 11 2 17 5 13 3 -3 4 -12 1 -19z m3 -63 c0 -14 5 -25 10 -25
6 0 10 -7 10 -15 0 -8 -7 -15 -15 -15 -10 0 -15 -17 -18 -67 -2 -50 -4 -40 -5
40 -1 66 2 107 8 107 6 0 10 -11 10 -25z m807 -702 c-3 -10 -5 -2 -5 17 0 19
2 27 5 18 2 -10 2 -26 0 -35z m0 -155 c-2 -13 -4 -3 -4 22 0 25 2 35 4 23 2
-13 2 -33 0 -45z m0 -570 c-3 -8 -6 -5 -6 6 -1 11 2 17 5 13 3 -3 4 -12 1 -19z
m-958 -22 c-2 -2 -119 -9 -259 -16 -140 -6 -383 -18 -540 -26 -675 -36 -1096
-48 -1235 -37 -99 9 -99 9 115 16 118 5 298 12 400 17 102 5 365 14 585 21
220 6 477 14 570 18 204 10 370 12 364 7z m1196 -47 c227 -12 1070 -48 1173
-51 75 -1 75 -1 22 -7 -127 -14 -760 -3 -1080 17 -179 12 -382 24 -452 28
-105 5 -128 9 -128 21 0 16 27 16 465 -8z m-3235 -59 c118 -5 415 -19 660 -30
850 -39 1374 -70 1380 -81 4 -6 8 -102 9 -215 l2 -204 -58 0 c-32 0 -150 7
-263 15 -113 7 -281 19 -375 25 -93 6 -260 17 -370 25 -110 8 -290 19 -400 25
-110 6 -330 20 -490 31 -159 10 -373 24 -475 30 -102 5 -195 12 -207 15 -23 4
-23 5 -23 196 l0 191 198 -6 c108 -4 294 -11 412 -17z m4972 -206 c3 -179 2
-187 -17 -194 -11 -4 -162 -14 -335 -24 -298 -16 -399 -22 -790 -46 -91 -5
-268 -14 -395 -20 -126 -6 -294 -15 -371 -20 -183 -13 -284 -13 -284 0 0 6 25
10 55 10 l55 0 0 190 0 190 -55 0 c-89 0 -63 17 38 24 317 22 1567 71 1934 74
l162 2 3 -186z m2296 -186 c3 -29 1 -48 -6 -48 -9 0 -14 23 -28 130 l-4 35 16
-35 c9 -19 19 -56 22 -82z m-2308 -88 c0 -16 -4 -30 -10 -30 -5 0 -10 3 -10 8
0 4 -3 17 -6 30 -5 16 -2 22 10 22 11 0 16 -9 16 -30z m1744 14 c24 -9 19 -24
-8 -24 -26 0 -40 12 -29 24 8 8 17 8 37 0z m51 -55 c11 -17 -1 -21 -15 -4 -8
9 -8 15 -2 15 6 0 14 -5 17 -11z m469 -79 c23 -119 27 -160 16 -160 -5 0 -10
4 -10 8 0 5 -9 58 -20 118 -23 127 -23 131 -10 118 5 -5 16 -43 24 -84z
m-4424 -10 c0 -21 -4 -42 -10 -45 -6 -4 -10 13 -10 45 0 32 4 49 10 45 6 -3
10 -24 10 -45z m5182 -119 c9 -85 9 -115 -1 -133 -6 -13 -9 -15 -7 -6 4 15 -2
96 -19 233 -5 38 -4 46 5 33 6 -10 16 -67 22 -127z m-8955 34 c7 -19 4 -22
-22 -27 -14 -2 -21 3 -23 20 -3 17 2 22 18 22 11 0 23 -7 27 -15z m7283 -2
c-19 -8 -71 -22 -115 -29 -44 -8 -105 -19 -135 -24 -51 -9 -81 -29 -92 -62 -3
-7 -12 -9 -21 -5 -16 6 -17 9 -2 38 22 41 62 55 180 62 55 4 123 13 150 21 66
18 78 18 35 -1z m-7164 -8 c-3 -8 0 -15 7 -16 7 -1 1 -4 -13 -8 -26 -8 -47 10
-35 29 10 17 48 12 41 -5z m187 0 c-6 -18 -34 -16 -41 3 -2 7 6 12 22 12 19 0
24 -4 19 -15z m6081 -42 c7 -8 -55 -32 -66 -26 -5 2 -8 11 -8 19 0 15 60 21
74 7z m-6056 -41 c6 -9 8 -20 4 -24 -19 -19 -133 -30 -251 -25 -133 6 -156 15
-141 53 8 20 13 20 192 16 153 -3 185 -6 196 -20z m5875 7 c-8 -8 -19 -8 -40
-1 -28 10 -28 10 12 11 28 1 36 -2 28 -10z m162 -31 c16 -7 25 -19 25 -34 0
-25 -9 -28 -131 -39 -72 -7 -226 10 -246 27 -7 6 -13 19 -13 29 0 15 5 18 23
14 12 -3 31 -6 42 -6 43 -1 240 12 244 16 8 8 29 5 56 -7z m-3150 -96 c-6 -15
-8 -15 -15 3 -10 28 0 53 12 30 5 -9 7 -24 3 -33z m343 31 c13 -24 4 -43 -19
-43 -13 0 -19 7 -19 23 0 39 23 50 38 20z m4647 -3 c11 -5 15 -9 8 -9 -35 -2
-132 -48 -156 -74 -27 -29 -28 -29 -42 -11 -8 10 -13 24 -12 29 3 13 104 63
137 68 39 6 44 6 65 -3z m-4838 -48 c-39 -5 -57 4 -57 26 0 19 1 19 43 -2 41
-21 42 -21 14 -24z m224 -37 c10 -4 19 -13 19 -21 0 -8 6 -23 13 -34 10 -17 9
-22 -3 -30 -38 -24 -346 -31 -444 -11 l-58 13 6 40 c4 23 9 44 11 48 5 9 428
4 456 -5z"/>
<path d="M3415 9460 c-3 -5 -2 -10 4 -10 5 0 13 5 16 10 3 6 2 10 -4 10 -5 0
-13 -4 -16 -10z"/>
<path d="M3456 9434 c-22 -22 -20 -41 5 -49 31 -10 55 16 40 44 -14 25 -24 26
-45 5z"/>
<path d="M3691 9266 c-18 -22 4 -58 32 -54 31 4 32 62 1 66 -11 2 -26 -4 -33
-12z"/>
<path d="M3231 9246 c-18 -22 -10 -61 13 -61 26 0 44 30 30 52 -15 23 -29 26
-43 9z"/>
<path d="M3653 9053 c-7 -2 -13 -16 -13 -29 0 -19 5 -24 26 -24 22 0 25 4 22
27 -3 27 -14 35 -35 26z"/>
<path d="M3237 9028 c-8 -28 15 -53 38 -44 25 9 16 60 -11 64 -15 2 -23 -4
-27 -20z"/>
<path d="M8818 9263 c-36 -9 -42 -83 -12 -149 12 -27 12 -38 -1 -80 -18 -60
-5 -80 43 -69 37 8 64 57 70 131 5 61 -10 112 -43 148 -24 26 -27 27 -57 19z
m65 -48 c10 -14 21 -47 24 -74 4 -40 2 -55 -15 -78 -11 -15 -21 -37 -23 -47
-5 -22 -35 -44 -46 -33 -4 4 0 28 10 53 17 48 12 79 -17 103 -19 16 -21 52 -4
69 7 7 8 12 3 12 -6 0 -3 5 5 10 24 16 44 11 63 -15z"/>
<path d="M8185 9230 c-84 -17 -167 -72 -150 -99 12 -20 43 -12 134 34 50 25
104 48 121 51 16 4 30 10 30 15 0 11 -80 10 -135 -1z"/>
<path d="M8173 9098 c-32 -8 -43 -16 -48 -35 -7 -29 2 -63 16 -63 6 0 8 9 4
19 -3 11 -2 22 4 25 5 3 12 -12 16 -33 4 -23 20 -55 40 -78 l34 -38 21 21 c20
20 21 25 10 58 -6 20 -23 49 -36 65 l-24 29 23 6 c12 3 43 6 70 6 42 0 47 -2
47 -22 -1 -13 -7 -40 -14 -60 -16 -45 -12 -49 8 -9 17 32 24 91 12 109 -9 15
-122 14 -183 0z"/>
<path d="M8272 8593 c-23 -8 -40 -19 -37 -24 6 -9 72 14 90 32 12 12 -1 11
-53 -8z"/>
<path d="M2541 8681 c-11 -7 -8 -17 18 -50 29 -36 41 -48 41 -38 0 2 -11 18
-25 37 -14 19 -23 40 -21 47 6 15 5 15 -13 4z"/>
<path d="M2978 8648 c-8 -21 2 -38 23 -38 14 0 19 7 19 25 0 18 -5 25 -19 25
-10 0 -21 -6 -23 -12z"/>
<path d="M2764 8536 c-8 -21 3 -36 27 -36 15 0 20 6 17 22 -4 27 -35 37 -44
14z"/>
<path d="M1953 8343 c-18 -7 -16 -38 2 -53 23 -19 47 -4 43 27 -3 27 -20 37
-45 26z"/>
<path d="M1764 8169 c-13 -15 -16 -24 -8 -36 17 -27 32 -26 50 1 13 21 14 29
4 41 -16 20 -23 19 -46 -6z"/>
<path d="M2143 8063 c-30 -12 -4 -54 28 -46 25 7 27 53 2 52 -10 0 -24 -3 -30
-6z"/>
<path d="M2289 7933 c-13 -16 -12 -17 4 -4 9 7 17 15 17 17 0 8 -8 3 -21 -13z"/>
<path d="M4721 7946 c-9 -10 -7 -19 8 -37 18 -22 19 -23 46 -5 26 17 26 18 9
37 -20 22 -47 25 -63 5z"/>
<path d="M6630 7920 c-21 -13 -1 -64 28 -68 30 -4 38 22 18 53 -18 27 -24 29
-46 15z"/>
<path d="M6760 6730 c0 -13 7 -20 20 -20 18 0 19 3 10 20 -6 11 -15 20 -20 20
-6 0 -10 -9 -10 -20z"/>
<path d="M5065 7620 c3 -5 8 -10 11 -10 2 0 4 5 4 10 0 6 -5 10 -11 10 -5 0
-7 -4 -4 -10z"/>
<path d="M5010 7600 c-14 -10 -23 -21 -20 -23 3 -3 19 6 35 19 35 28 22 32
-15 4z"/>
<path d="M2726 7373 c-6 -14 -5 -15 5 -6 7 7 10 15 7 18 -3 3 -9 -2 -12 -12z"/>
<path d="M2801 7345 c0 -5 11 -23 25 -40 14 -16 21 -21 16 -10 -16 30 -41 61
-41 50z"/>
<path d="M2880 7233 c0 -5 10 -18 23 -29 l22 -19 -20 25 c-11 14 -21 27 -22
29 -2 2 -3 0 -3 -6z"/>
<path d="M2940 7146 c0 -2 8 -10 18 -17 15 -13 16 -12 3 4 -13 16 -21 21 -21
13z"/>
<path d="M3288 6533 c7 -3 16 -2 19 1 4 3 -2 6 -13 5 -11 0 -14 -3 -6 -6z"/>
<path d="M3310 6520 c-25 -5 -53 -6 -63 -3 -32 8 -32 -27 -1 -53 25 -20 37
-23 86 -19 60 5 108 19 108 33 0 4 -7 18 -16 30 -16 23 -35 25 -114 12z"/>
<path d="M5344 7347 c-4 -6 -4 -9 1 -5 9 8 38 -18 32 -29 -2 -5 4 -17 14 -27
19 -19 19 -19 15 13 -2 17 -5 33 -7 34 -2 1 -14 8 -26 14 -17 10 -24 10 -29 0z"/>
<path d="M4869 7189 c-29 -29 -24 -93 9 -97 52 -8 83 66 44 101 -24 22 -28 21
-53 -4z m46 -28 c3 -5 1 -12 -5 -16 -5 -3 -10 1 -10 9 0 18 6 21 15 7z"/>
<path d="M3042 6418 c-7 -7 -12 -18 -12 -25 0 -18 41 -42 68 -40 17 1 21 6 16
22 -8 26 -34 55 -49 55 -6 0 -16 -5 -23 -12z"/>
<path d="M2874 5993 c4 -7 2 -13 -4 -13 -6 0 -9 -4 -5 -9 3 -5 1 -12 -5 -16
-12 -7 -13 -25 -2 -25 5 0 14 12 21 27 9 20 9 29 0 37 -9 8 -10 8 -5 -1z"/>
<path d="M2429 6513 c-3 -36 4 -548 8 -559 3 -8 10 -14 15 -14 7 0 8 33 4 93
-3 50 -7 181 -9 290 -1 108 -5 197 -9 197 -5 0 -8 -3 -9 -7z"/>
<path d="M2236 6438 c3 -5 -2 -18 -11 -28 -16 -18 -16 -20 -1 -26 25 -10 46 3
46 30 0 15 -7 25 -20 29 -12 3 -17 1 -14 -5z"/>
<path d="M2137 6243 c-4 -3 -7 -17 -7 -30 0 -19 5 -23 30 -23 34 0 49 22 30
45 -13 16 -42 20 -53 8z"/>
<path d="M2432 5873 c2 -20 9 -29 26 -31 20 -3 23 0 20 25 -2 20 -9 29 -26 31
-20 3 -23 0 -20 -25z"/>
<path d="M5575 5993 c-82 -43 -118 -107 -118 -209 0 -94 28 -154 89 -190 79
-47 155 -32 230 43 62 61 79 134 53 228 -31 113 -160 178 -254 128z m141 -30
c17 -9 46 -38 65 -66 30 -44 34 -57 32 -109 -2 -76 -37 -138 -97 -173 -84 -49
-167 -20 -219 80 -42 80 -17 206 50 253 62 43 107 47 169 15z"/>
<path d="M5577 5925 c-15 -19 -33 -35 -40 -35 -14 -1 -48 -68 -37 -75 4 -2 15
4 25 15 10 11 24 20 32 20 9 0 12 6 9 18 -5 14 -1 17 21 16 28 -1 46 -24 19
-24 -9 0 -21 -9 -28 -19 -6 -10 -16 -17 -22 -15 -6 2 -24 -7 -41 -20 l-30 -25
18 -31 c9 -17 17 -37 17 -44 0 -6 26 -29 58 -50 68 -45 98 -43 150 7 57 54 63
74 46 148 -18 81 -47 118 -99 129 -22 4 -47 10 -55 14 -10 4 -25 -6 -43 -29z
m73 -15 c0 -5 6 -7 13 -4 18 7 73 -55 87 -98 15 -47 1 -94 -38 -130 -35 -33
-72 -52 -72 -38 0 6 11 15 24 20 40 15 66 58 66 109 0 60 -28 102 -76 116 -41
11 -58 35 -25 35 12 0 21 -4 21 -10z m50 -82 c21 -35 27 -74 10 -63 -5 3 -10
16 -10 28 0 13 -7 33 -16 45 -8 12 -13 22 -9 22 3 0 14 -15 25 -32z m-46 -4
c23 -22 20 -40 -3 -20 -11 10 -25 15 -30 11 -14 -8 -3 -56 16 -72 12 -9 11
-12 -7 -18 -28 -9 -32 -4 -37 43 -3 28 0 44 12 56 20 20 29 20 49 0z m-93 -90
c14 -29 22 -54 18 -54 -13 0 -59 73 -59 92 0 32 14 18 41 -38z m133 -25 c-43
-46 -63 -54 -82 -35 -15 15 -13 16 19 16 25 0 43 7 59 25 13 14 26 25 29 25 2
0 -8 -14 -25 -31z"/>
<path d="M4614 5922 c-58 -20 -101 -53 -133 -98 -110 -159 -63 -398 93 -473
57 -28 171 -29 224 -2 48 25 62 41 107 128 54 104 56 146 10 260 -66 165 -173
231 -301 185z m124 -17 c44 -19 82 -53 82 -73 0 -12 -9 -13 -45 -9 -25 4 -47
2 -50 -3 -3 -6 -17 -10 -31 -10 l-24 0 20 40 c24 47 24 50 6 50 -8 0 -18 5
-21 10 -9 15 20 12 63 -5z m-87 -17 c1 -7 3 -29 4 -49 3 -32 1 -37 -30 -48
-18 -6 -36 -18 -39 -26 -8 -22 -26 -18 -26 5 0 11 7 23 15 26 19 8 20 44 1 44
-31 0 -47 -30 -40 -75 6 -40 4 -44 -28 -69 -44 -33 -62 -34 -53 -3 28 90 67
145 135 190 30 19 60 22 61 5z m199 -89 c0 -5 4 -8 9 -5 17 11 52 -81 58 -151
7 -87 -20 -157 -80 -208 -72 -62 -78 -40 -12 42 49 60 61 89 51 129 -4 16 -2
32 6 42 7 9 8 13 2 9 -8 -4 -16 10 -24 41 -6 26 -18 55 -27 64 -8 10 -13 24
-10 33 7 17 27 21 27 4z m-75 -17 c34 -21 60 -85 70 -172 5 -48 3 -61 -17 -90
-23 -35 -25 -35 -105 -38 -56 -2 -85 -7 -93 -17 -7 -8 -18 -15 -24 -15 -16 0
-88 129 -83 149 2 10 10 1 20 -22 24 -55 56 -97 75 -97 12 0 10 6 -10 28 -34
36 -51 69 -57 114 l-6 38 -44 -29 c-47 -32 -61 -32 -61 0 0 15 7 19 30 19 19
0 40 9 55 24 24 24 25 24 35 6 5 -10 10 -30 10 -43 0 -29 26 -95 47 -119 21
-23 93 -33 137 -18 20 6 45 23 56 37 36 45 22 142 -28 196 -46 49 -142 30
-182 -36 -19 -30 -20 -30 -20 -8 0 14 14 37 36 57 28 27 44 34 75 34 21 0 39
5 39 10 0 14 11 12 45 -8z m-3 -89 c22 -21 28 -36 28 -69 0 -45 -36 -106 -50
-84 -5 9 -9 9 -14 1 -9 -14 -51 -14 -77 -1 -10 6 -26 24 -34 40 -17 33 -20
116 -5 125 6 4 9 -13 8 -44 -2 -44 2 -55 27 -82 25 -26 35 -30 63 -25 46 7 62
23 62 60 0 35 -21 70 -51 87 -16 8 -25 7 -40 -7 -10 -9 -19 -24 -20 -33 0 -11
-2 -12 -6 -3 -3 7 2 24 11 37 22 33 62 33 98 -2z m-38 -48 c4 -10 -1 -15 -14
-15 -11 0 -20 7 -20 15 0 8 6 15 14 15 8 0 16 -7 20 -15z m-54 -31 c0 -8 -4
-14 -10 -14 -5 0 -10 9 -10 21 0 11 5 17 10 14 6 -3 10 -13 10 -21z m-155
-101 c22 -43 41 -81 43 -85 2 -5 -4 -8 -13 -8 -9 0 -13 -4 -10 -10 3 -5 19
-10 35 -10 15 0 30 -7 34 -15 4 -12 23 -15 82 -15 68 0 81 3 120 30 47 31 59
27 22 -7 -61 -55 -158 -66 -243 -28 -54 23 -97 77 -123 154 -34 98 2 93 53 -6z
m222 -77 l28 -24 -25 -10 c-34 -13 -140 -3 -140 13 0 23 35 41 87 44 12 0 35
-10 50 -23z"/>
<path d="M4725 5860 c3 -5 11 -10 16 -10 6 0 7 5 4 10 -3 6 -11 10 -16 10 -6
0 -7 -4 -4 -10z"/>
<path d="M5475 5544 c17 -36 45 -63 45 -45 0 6 -13 25 -30 43 l-30 33 15 -31z"/>
<path d="M5400 5391 c0 -39 17 -48 42 -23 26 25 17 52 -17 52 -21 0 -25 -5
-25 -29z m38 0 c3 -8 -1 -12 -9 -9 -7 2 -15 10 -17 17 -3 8 1 12 9 9 7 -2 15
-10 17 -17z"/>
<path d="M2188 5373 c6 -2 18 -2 25 0 6 3 1 5 -13 5 -14 0 -19 -2 -12 -5z"/>
<path d="M2450 5285 c-10 -12 -10 -21 -2 -40 14 -30 37 -32 52 -6 13 25 13 27
-6 45 -19 20 -28 20 -44 1z"/>
<path d="M4997 5283 c-4 -3 -7 -15 -7 -25 0 -13 7 -18 25 -18 28 0 29 3 15 31
-11 20 -22 24 -33 12z"/>
<path d="M5240 4965 c-12 -14 -11 -18 1 -25 8 -6 15 -6 17 0 2 6 10 10 19 10
19 0 11 24 -9 28 -8 2 -21 -4 -28 -13z"/>
<path d="M4850 5032 c0 -12 19 -26 26 -19 2 2 -2 10 -11 17 -9 8 -15 8 -15 2z"/>
<path d="M3188 5003 c6 -2 18 -2 25 0 6 3 1 5 -13 5 -14 0 -19 -2 -12 -5z"/>
<path d="M6130 4926 c0 -2 19 -15 43 -30 l42 -27 -35 30 c-32 27 -50 38 -50
27z"/>
<path d="M5388 4755 c3 -21 9 -34 16 -32 16 5 20 36 6 52 -20 24 -26 17 -22
-20z"/>
<path d="M5320 4766 c0 -8 9 -20 21 -26 18 -10 20 -9 17 12 -3 26 -38 39 -38
14z"/>
<path d="M5380 4500 c0 -25 4 -31 18 -28 11 2 17 12 17 28 0 16 -6 26 -17 28
-14 3 -18 -3 -18 -28z"/>
<path d="M4448 4643 c-10 -2 -18 -13 -18 -24 0 -18 8 -19 131 -19 130 0 130 0
127 23 -3 21 -7 22 -113 23 -60 1 -118 0 -127 -3z m187 -24 c-57 -11 -175 -11
-175 1 0 6 42 10 108 9 84 -1 98 -3 67 -10z"/>
<path d="M4450 4480 c0 -6 40 -10 100 -10 60 0 100 4 100 10 0 6 -40 10 -100
10 -60 0 -100 -4 -100 -10z"/>
<path d="M4247 4564 c-4 -4 -7 -16 -7 -26 0 -13 7 -18 26 -18 21 0 25 4 22 22
-3 23 -27 35 -41 22z"/>
<path d="M3387 4563 c-12 -11 -8 -50 6 -61 17 -14 57 3 57 26 0 32 -43 56 -63
35z"/>
<path d="M1183 4550 c-15 -6 -23 -18 -23 -34 0 -32 32 -51 60 -36 23 12 24 20
8 55 -12 28 -13 28 -45 15z"/>
<path d="M1490 4545 c-10 -12 -10 -21 -2 -40 15 -33 50 -33 58 0 11 44 -29 72
-56 40z"/>
<path d="M3034 4546 c-9 -24 15 -58 39 -54 17 2 22 10 22 33 0 25 -4 30 -28
33 -17 2 -29 -2 -33 -12z"/>
<path d="M3870 3247 c0 -93 9 -121 36 -110 11 4 14 29 14 104 0 99 0 99 -25
99 -25 0 -25 0 -25 -93z"/>
<path d="M3820 2103 l0 -448 45 -2 45 -1 0 184 c0 101 0 187 0 191 0 4 -16 6
-34 5 -34 -3 -35 -2 -41 42 -9 57 -1 70 40 63 23 -4 35 -1 39 8 3 8 3 97 -1
197 -5 182 -9 197 -42 198 -10 0 -11 -3 -2 -13 6 -8 8 -16 5 -20 -10 -9 -34 4
-34 18 0 8 -4 17 -10 20 -7 4 -10 -146 -10 -442z m47 290 c-3 -10 -5 -2 -5 17
0 19 2 27 5 18 2 -10 2 -26 0 -35z m23 -82 c0 -3 -9 -12 -20 -19 -17 -10 -21
-10 -26 3 -9 23 15 48 32 34 8 -6 14 -14 14 -18z m-20 -83 c0 -37 -7 -34 -14
5 -2 15 0 27 5 27 5 0 9 -14 9 -32z m3 -325 c5 -90 4 -103 -10 -103 -13 0 -15
8 -9 46 3 26 6 74 6 107 0 90 6 65 13 -50z m-6 -210 c-2 -16 -4 -5 -4 22 0 28
2 40 4 28 2 -13 2 -35 0 -50z"/>
<path d="M3821 1167 c-1 -379 2 -478 12 -474 9 3 12 67 13 276 0 150 -2 274
-6 276 -3 2 -2 52 1 112 5 71 3 138 -6 198 -12 82 -13 47 -14 -388z"/>
<path d="M3870 1476 c0 -36 5 -58 15 -66 22 -18 28 -7 33 60 4 59 4 60 -22 60
-25 0 -26 -2 -26 -54z"/>
<path d="M3871 1198 c4 -24 8 -62 9 -85 0 -36 3 -43 20 -43 18 0 20 7 20 85
l0 85 -29 0 c-28 0 -28 0 -20 -42z"/>
<path d="M3878 798 c2 -57 6 -105 8 -107 2 -2 10 -1 19 2 12 5 15 25 15 107 0
98 0 100 -23 100 -24 0 -24 0 -19 -102z"/>
<path d="M6647 2927 c2 -207 2 -213 11 -200 7 11 35 20 70 22 9 1 12 40 12
161 l0 160 -47 0 -48 0 2 -143z m63 11 c0 -13 3 -33 6 -45 5 -20 2 -23 -21
-23 -23 0 -26 3 -21 23 3 12 6 32 6 45 0 13 6 22 15 22 9 0 15 -9 15 -22z"/>
<path d="M6648 2474 l-3 -164 48 0 47 0 0 155 0 155 -27 5 c-68 15 -62 29 -65
-151z m68 12 c7 -39 0 -56 -22 -56 -10 0 -14 12 -14 45 0 56 26 64 36 11z"/>
<path d="M6648 2087 c-2 -39 -2 -116 0 -169 l3 -98 45 0 44 0 0 165 c0 164 0
165 -22 166 -13 0 -33 2 -45 5 -21 4 -22 0 -25 -69z m62 -102 c0 -33 -4 -45
-15 -45 -11 0 -15 12 -15 45 0 33 4 45 15 45 11 0 15 -12 15 -45z"/>
<path d="M6650 1590 c0 -56 3 -70 15 -70 11 0 15 13 16 53 1 53 3 51 14 -15 4
-29 11 -38 25 -38 18 0 20 7 20 70 l0 70 -45 0 -45 0 0 -70z"/>
<path d="M6704 1314 c3 -9 6 -47 6 -85 0 -62 2 -69 20 -69 18 0 20 7 20 85 0
85 0 85 -26 85 -20 0 -25 -4 -20 -16z"/>
</g>
</svg>
